<svg xmlns="http://www.w3.org/2000/svg" viewBox="0 0 215.3 123.75">
    <g id="acacia2">
        <path d="M352,268.31c3.94,11.33,16.49,12.92,29,10.25s38.77-.89,51.69.45,18.27,4,32.53,5.79,36.54,1.34,53.92-1.34,33-2.23,29.41-14.71S520.86,258.5,493.67,254,439.75,242.46,413,243.36s-49-1.34-56.6,7.58S348.39,258.06,352,268.31Z"
              transform="translate(-333.7 -236.63)" style="fill:#5c6836"/>
        <path d="M434.13,274c-3.25,6.21-7.69,11.53-11.23,17.74a132.53,132.53,0,0,0-6.8,14.49s-0.59-8.87,2.37-16.56,12.42-35.78,12.12-39.62l-1.77-.59s-1.78,6.21-4.73,17.15-6.51,17.15-8.58,25.72-2.07,9.17-2.07,12.72a21.7,21.7,0,0,1-.89,6.21l-1.89,5.86a54.68,54.68,0,0,0-2.26-7.23c1.42-9.94,1-15.4,3.26-27.9,2.36-13.3,4.78-37.32,4.78-37.32h-1.2s-4.17,31.12-6,41.17c-1.16,6.56-2.18,14.62-2.76,19.44-2.83-6.88-6.92-18.67-9.08-23.77-0.53-6.24-.65-14,0.91-20.5,2.07-8.58,4.43-16.27,4.43-16.27l-1.18-1.18s-3.25,6.21-4.73,16.56c-1.06,7.42-1.51,14.06-1.68,17.23-2.38-3.66-6.56-9.32-11.33-15.76-5.91-8-5.61-11.24-5.61-11.24l-2.07.59c2.66,10.35,16.26,23.66,18.33,29.57,1.5,4.28,4.08,13.37,6.63,22.9-5.78-4.93-23.78-21.08-27.93-25-4.73-4.43-27.5-24-27.5-24l-2.36.3s23.36,20.11,31.94,28.09,24.37,21.4,28.22,30.27L403.4,312,404,314.2c3.25,12.72,2.07,44.95,2.07,44.95,3,2.07,7.1.89,7.1,0.89s0-22.77-.89-32.23c1.18-10.35,4.43-16.26,6.8-22.18s11.24-23.66,16.26-30.46S443,254.77,443,254.77,437.38,267.78,434.13,274Z"
              transform="translate(-333.7 -236.63)" style="fill:#76614a"/>
        <path d="M435.44,274c-3.25,6.21-7.69,11.53-11.23,17.74a132.32,132.32,0,0,0-6.8,14.49s-0.59-8.87,2.37-16.56,12.42-35.78,12.12-39.62l-1.77-.59s-1.78,6.21-4.73,17.15-6.51,17.15-8.58,25.72-2.07,9.17-2.07,12.72a21.7,21.7,0,0,1-.89,6.21L412,317.11a55,55,0,0,0-2.25-7.23c1.42-9.94,1-15.4,3.26-27.9,2.36-13.3,4.79-37.32,4.79-37.32h-1.21s-4.17,31.12-5.95,41.17c-1.16,6.56-2.19,14.62-2.76,19.44-2.83-6.88-6.92-18.67-9.08-23.77-0.53-6.24-.65-14,0.91-20.5,2.07-8.58,4.43-16.27,4.43-16.27l-1.18-1.18s-3.25,6.21-4.73,16.56c-1.06,7.42-1.51,14.06-1.68,17.23-2.37-3.66-6.56-9.32-11.33-15.76-5.91-8-5.62-11.24-5.62-11.24l-2.07.59c2.66,10.35,16.26,23.66,18.33,29.57,1.5,4.28,4.08,13.37,6.63,22.9-5.79-4.93-23.78-21.08-27.93-25-4.73-4.43-27.5-24-27.5-24l-2.36.3s23.36,20.11,31.94,28.09,24.37,21.4,28.22,30.27l-0.1-1.12,0.56,2.19c3.25,12.72,2.07,44.95,2.07,44.95,3,2.07,7.1.89,7.1,0.89s0-22.77-.89-32.23c1.18-10.35,4.43-16.26,6.8-22.18s11.24-23.66,16.26-30.46,7.69-20.41,7.69-20.41S438.69,267.78,435.44,274Z"
              transform="translate(-333.7 -236.63)" style="fill:#574633"/>
        <path d="M342.15,267.42c17.43,0,18.73-2.26,33-3.12,14.71-.89,25.85-4,37.43-0.44s17.38-.45,33,0.89,19.61,2.23,24.51,0,19.16-4.46,6.69-14.7-42.78-5.35-65.51-4.46-23.17-2.67-36.54.89-34.76,1.78-38.33,9.8S337.25,267.42,342.15,267.42Z"
              transform="translate(-333.7 -236.63)" style="fill:#5c6836"/>
        <path d="M334.05,263.38c1.87,6.42,12.48,6.68,19.61,2.23s0.45-4.9,15.15-6.24c5.19-.47,10.31,1.61,13.81,1.34,6.44-.51,10.59-3.3,21.83-4.46,17.38-1.78,33,1.78,37.88-4.9s-0.89-15.15-18.72-14.71-14.71,4-20.05,4.46-17.83-1.78-25.4.89-14.71,7.58-21.84,7.58S330.93,252.68,334.05,263.38Z"
              transform="translate(-333.7 -236.63)" style="fill:#65723c"/>
        <path d="M478.34,359.71c-0.89-3.57,3.34-27.85,7.8-38.33s21.17-32.53,26.74-39.88,13.59-17.83,13.59-17.83l-1.56-.45s-20.95,25.4-28.52,36.32-20.3,29.11-21.42,37.8c-0.69,5.37,2.64,8.2-1.09,22.81Z"
              transform="translate(-333.7 -236.63)" style="fill:#76614a"/>
        <path d="M464.53,359.27c-4.46-18-10-39.66-14.93-49.24s-29.86-34.54-36.32-39.22-13.59-9.58-13.59-9.58,12.25,7.13,17.16,10,26.29,24.73,31.41,31.2,7.8,17.6,9.81,21.84,8.25,21.83,9.36,27,1.56,8.24,1.56,8.24Z"
              transform="translate(-333.7 -236.63)" style="fill:#76614a"/>
        <path d="M480.79,332.75a24.42,24.42,0,0,1,.22-18.27c2-4.24,11.14-12.7,12.93-20.94s0-29,0-29,1.56,25.4-2,30.53-10.7,13.59-13.37,18.72-2.89,7.13-2.22,13.37a31.84,31.84,0,0,0,2.9,10.48Z"
              transform="translate(-333.7 -236.63)" style="fill:#76614a"/>
        <path d="M478.56,316.26c-0.22-6,2.45-12.48,5.35-19.61s0-11.81-1.11-15.15-8-16-8-16S485.25,286,483.47,292s-7.35,15.82-7.35,21.17,0.45,9.58.45,9.58Z"
              transform="translate(-333.7 -236.63)" style="fill:#76614a"/>
        <path d="M480.26,336.4c8-8.24,20.91-20.77,30.49-27.9s11.93-8.5,16.16-14.29,18.94-15.37,18.94-15.37-15.15,8.24-19.61,13.37-14.26,12.48-18,16.27-24.29,18-24.29,18Z"
              transform="translate(-333.7 -236.63)" style="fill:#76614a"/>
        <path d="M524.91,294.42s-1.34-1.12,0-6a50.33,50.33,0,0,1,4.68-10.47s-4.9,6.24-5.79,9.36-2.45,11.14-2.45,11.14Z"
              transform="translate(-333.7 -236.63)" style="fill:#76614a"/>
        <path d="M472,360c-0.68-7.49-4.77-32-4.09-39.5s0.34-17.36.34-21.79-2-23.5-2-23.5l1.36-.68s3.07,13.28,3.75,20.77,0.68,18,2,29.28,3.41,25.88,3.41,25.88l-0.34,9.88Z"
              transform="translate(-333.7 -236.63)" style="fill:#76614a"/>
        <path d="M468.61,314.07c-2.39-7.83-6.13-15.32-7.49-23.15s-2.38-20.09-2.38-20.09l-2.72.68s-0.34,15.32,1.7,22.47,10.22,26.56,10.22,26.56Z"
              transform="translate(-333.7 -236.63)" style="fill:#76614a"/>
        <path d="M479.56,359.71c-0.89-3.57,3.34-27.85,7.8-38.33s21.17-32.53,26.74-39.88,13.59-17.83,13.59-17.83l-1.56-.45s-20.95,25.4-28.52,36.32-20.3,29.11-21.42,37.8c-0.69,5.37,2.64,8.2-1.09,22.81Z"
              transform="translate(-333.7 -236.63)" style="fill:#574633"/>
        <path d="M465.74,359.27c-4.46-18-10-39.66-14.93-49.24S421,275.49,414.49,270.8s-13.59-9.58-13.59-9.58,12.25,7.13,17.16,10,26.29,24.73,31.42,31.2,7.8,17.6,9.8,21.84,8.25,21.83,9.36,27,1.56,8.24,1.56,8.24Z"
              transform="translate(-333.7 -236.63)" style="fill:#574633"/>
        <path d="M482,332.75a24.41,24.41,0,0,1,.22-18.27c2-4.24,11.14-12.7,12.93-20.94s0-29,0-29,1.56,25.4-2,30.53-10.7,13.59-13.37,18.72-2.89,7.13-2.23,13.37a31.86,31.86,0,0,0,2.9,10.48Z"
              transform="translate(-333.7 -236.63)" style="fill:#574633"/>
        <path d="M479.78,316.26c-0.22-6,2.45-12.48,5.35-19.61s0-11.81-1.11-15.15-8-16-8-16S486.46,286,484.68,292s-7.35,15.82-7.35,21.17,0.45,9.58.45,9.58Z"
              transform="translate(-333.7 -236.63)" style="fill:#574633"/>
        <path d="M481.47,336.4c8-8.24,20.91-20.77,30.49-27.9s11.93-8.5,16.16-14.29,18.94-15.37,18.94-15.37-15.15,8.24-19.61,13.37-14.26,12.48-18.05,16.27-24.29,18-24.29,18Z"
              transform="translate(-333.7 -236.63)" style="fill:#574633"/>
        <path d="M526.13,294.42s-1.34-1.12,0-6a50.39,50.39,0,0,1,4.68-10.47s-4.9,6.24-5.79,9.36-2.45,11.14-2.45,11.14Z"
              transform="translate(-333.7 -236.63)" style="fill:#574633"/>
        <path d="M473.23,360c-0.68-7.49-4.77-32-4.09-39.5s0.34-17.36.34-21.79-2-23.5-2-23.5l1.36-.68s3.07,13.28,3.75,20.77,0.68,18,2,29.28S478,350.5,478,350.5l-0.34,9.88Z"
              transform="translate(-333.7 -236.63)" style="fill:#574633"/>
        <path d="M469.83,314.07c-2.38-7.83-6.13-15.32-7.49-23.15S460,270.82,460,270.82l-2.72.68s-0.34,15.32,1.7,22.47,10.22,26.56,10.22,26.56Z"
              transform="translate(-333.7 -236.63)" style="fill:#574633"/>
        <path d="M502.15,272.73a47.11,47.11,0,0,0-5.06.46c-2.68,3.73,16.31,4.86,24.17,4.45,8.29-.44,8.48,7.24,27.3,9.65V273.91c-3.56-.13-7.29-0.29-11.22-0.29C522.65,273.62,516.85,272.28,502.15,272.73Z"
              transform="translate(-333.7 -236.63)" style="fill:#5c6836"/>
        <path d="M492.79,254.46c-8,.89-6.68-3.57-12-7.58s-28.77-5.17-45.9,1.34c-15.81,6-23.13,17.33-10.7,25,5.09,3.12,28.65,7.19,32.53,7.58,11.87,1.19,26.89-5.69,40.4-7.57a47.11,47.11,0,0,1,5.06-.46c14.7-.44,20.5.89,35.2,0.89,3.93,0,7.66.16,11.22,0.29V253.64c-11.37-3.15-23.83-3.75-35.28-4.08C498.14,249.11,500.81,253.57,492.79,254.46Z"
              transform="translate(-333.7 -236.63)" style="fill:#65723c"/>
    </g>

</svg>