<svg xmlns="http://www.w3.org/2000/svg" viewBox="0 0 109.78 67.11">
    <g id="acacia1">
        <path d="M28.14,291.28c1.87,6.52,7.83,7.43,13.76,5.9s18.42-.51,24.56.26,8.68,2.31,15.45,3.33,17.36,0.77,25.62-.77,15.67-1.28,14-8.46-13.13-5.9-26-8.46-25.62-6.67-38.32-6.15-23.29-.77-26.89,4.36S26.45,285.38,28.14,291.28Z"
              transform="translate(-27.12 -274.3)" style="fill:#5c6836"/>
        <path d="M108.26,303.46s-0.77-.64,0-3.46a29,29,0,0,1,2.69-6s-2.82,3.59-3.33,5.38-1.41,6.41-1.41,6.41Z"
              transform="translate(-27.12 -274.3)" style="fill:#574633"/>
        <path d="M124.78,290.23c4.87,1.79,11.28,2.82,8.72,6.16s0.26,7.18-11.28,5.9-11.54-5.9-16.41-5.64-17.18-.51-13.33-3.08S119.9,288.44,124.78,290.23Z"
              transform="translate(-27.12 -274.3)" style="fill:#5c6836"/>
        <path d="M70.88,320.64c-1.15-2.44-2.69-8.85-5.64-12.57S50,291.79,47.16,290.13s-9.87-5.77-9.87-5.77,4.1,2.82,7.82,5.51S63.18,306.92,66,312.44s6,17.95,8.59,28.34l2.56,0.13s-0.26-1.8-.9-4.74A137.25,137.25,0,0,0,70.88,320.64Z"
              transform="translate(-27.12 -274.3)" style="fill:#76614a"/>
        <path d="M110.11,302.18c-2.57,2.95-8.21,7.18-10.39,9.36-2,2-11.89,8.93-13.69,10.19,0.33-1,.66-2,1-2.75,2.56-6,12.18-18.72,15.39-22.95s7.82-10.26,7.82-10.26l-0.9-.25s-12.05,14.62-16.41,20.9a166.42,166.42,0,0,0-9.86,15.38,14,14,0,0,1,1-6.79c1.16-2.44,6.41-7.31,7.44-12.05s0-16.67,0-16.67,0.9,14.62-1.15,17.56-6.07,7.72-7.64,10.68c0.27-3,1.6-6.27,3-9.78,1.67-4.1,0-6.8-.64-8.72s-4.62-9.23-4.62-9.23,6,11.8,5,15.26-4.23,9.1-4.23,12.18c0,1.43.06,2.71,0.12,3.68a14.16,14.16,0,0,0,0,4.39,19.74,19.74,0,0,0,.37,2.19,14.59,14.59,0,0,0-1.14,3.6c-0.31-2.35-.64-4.93-0.93-7.27-0.78-6.46-.78-12.54-1.18-16.85a120.49,120.49,0,0,0-2.16-12l-0.78.39s1.18,11,1.18,13.52c0,1.76.09,5,0,8.28-1.37-4.31-3.38-8.46-4.14-12.79-0.78-4.5-1.37-11.56-1.37-11.56l-1.57.39s-0.2,8.82,1,12.93,5.88,15.28,5.88,15.28c-0.39,4.31,2,18.42,2.35,22.73l2.55,0.2v-0.27l1.08-.11c-0.35-1.4.67-8.32,2.16-14.5,4.64-4.7,11.38-11.17,16.49-15,5.51-4.1,6.86-4.89,9.3-8.22s10.9-8.84,10.9-8.84S112.67,299.23,110.11,302.18Z"
              transform="translate(-27.12 -274.3)" style="fill:#76614a"/>
        <path d="M69.8,320.64c-1.15-2.44-2.69-8.85-5.64-12.57S48.9,291.79,46.08,290.13s-9.87-5.77-9.87-5.77,4.1,2.82,7.82,5.51,18.08,17.05,20.9,22.57,6,17.95,8.59,28.34l2.56,0.13s-0.26-1.8-.9-4.74A137.33,137.33,0,0,0,69.8,320.64Z"
              transform="translate(-27.12 -274.3)" style="fill:#574633"/>
        <path d="M109,302.18c-2.57,2.95-8.21,7.18-10.39,9.36-2,2-11.89,8.93-13.69,10.19,0.33-1,.66-2,1-2.75,2.56-6,12.18-18.72,15.38-22.95s7.82-10.26,7.82-10.26l-0.9-.25s-12.05,14.62-16.41,20.9A166.4,166.4,0,0,0,82,321.79,14,14,0,0,1,83,315c1.15-2.44,6.41-7.31,7.44-12.05s0-16.67,0-16.67,0.9,14.62-1.15,17.56-6.07,7.72-7.64,10.68c0.27-3,1.6-6.27,3-9.78,1.67-4.1,0-6.8-.64-8.72s-4.62-9.23-4.62-9.23,6,11.8,5,15.26-4.23,9.1-4.23,12.18c0,1.43.06,2.71,0.12,3.68a14.14,14.14,0,0,0,0,4.39,19.42,19.42,0,0,0,.37,2.19,14.57,14.57,0,0,0-1.14,3.6c-0.31-2.35-.64-4.93-0.93-7.27-0.78-6.46-.78-12.54-1.18-16.85a120.75,120.75,0,0,0-2.15-12l-0.79.39s1.18,11,1.18,13.52c0,1.76.09,5,0,8.28-1.37-4.31-3.38-8.46-4.14-12.79-0.78-4.5-1.37-11.56-1.37-11.56l-1.57.39s-0.2,8.82,1,12.93,5.88,15.28,5.88,15.28c-0.39,4.31,2,18.42,2.35,22.73l2.55,0.2v-0.27l1.08-.11c-0.35-1.4.67-8.32,2.16-14.5,4.64-4.7,11.38-11.17,16.49-15,5.51-4.1,6.87-4.89,9.3-8.22s10.9-8.84,10.9-8.84S111.59,299.23,109,302.18Z"
              transform="translate(-27.12 -274.3)" style="fill:#574633"/>
        <path d="M49.58,291.31c-7.16-4.39-2.94-10.9,6.15-14.36,9.86-3.75,23.34-3.08,26.41-.77s2.31,4.87,6.92,4.36,3.08-3.08,11.8-2.82,18.46,0.77,26.41,4.62,12.83,9.87,7.19,12.95-11.29-3.72-19.76-3.72-11.8-.77-20.26-0.51S76,296.44,68.3,295.67C66.06,295.45,52.5,293.11,49.58,291.31Z"
              transform="translate(-27.12 -274.3)" style="fill:#65723c"/>
    </g>
</svg>