<svg xmlns="http://www.w3.org/2000/svg" viewBox="0 0 587.65 48.29">
    <path d="M565.54,0.27c-0.57-.18-1.17.15-0.74,0.51,7.57,6.26,9,14,8.18,21.78-3.71-2.68-6-6-6.77-9.67a0.63,0.63,0,0,0-1,0,71.14,71.14,0,0,0-1.64,11.2c-6.82-5.3-8.41-10.54-10.82-17.22-0.14-.39-1-0.31-1,0.1A111.6,111.6,0,0,1,550.06,28c0.15-.86-2.91-4.93-3.59-5.91-4.77-6.82-7.11-13.29-6.48-21a0.57,0.57,0,0,0-.61-0.68,0.55,0.55,0,0,0-.42.44,82.27,82.27,0,0,0-2.11,8.93c-0.33,1.84-1.92,6-.9,7.77a49.18,49.18,0,0,0-12.61-14.2c-0.39-.31-1.18.1-0.83,0.43,6.67,6.34,7.88,13.86,6.37,21.25a68.54,68.54,0,0,1-6.14-8.41c-0.21-.34-1.06-0.35-1,0.09a24.36,24.36,0,0,1-.87,7.89c-6.42-4.8-9.16-11.41-7.33-17.79,0.13-.45-0.89-0.64-1-0.19a41.68,41.68,0,0,0-1.36,15.13A52.72,52.72,0,0,0,494.05,6.12c-0.52-.31-1.17.15-0.75,0.51,5.19,4.35,8.28,9.62,9,15.1A8.57,8.57,0,0,1,498,16.79a0.53,0.53,0,0,0-1,0,8.08,8.08,0,0,0-.28,4.25,30.31,30.31,0,0,1-6.49-5.62c-0.26-.3-1-0.18-1,0.18a12.78,12.78,0,0,0,.4,2.79c-5.16-3.74-4.42-9.79-5.85-14.53-0.13-.43-1-0.27-1,0.1a44.32,44.32,0,0,0-.51,10.32,52.91,52.91,0,0,0-13.15-9.41c-0.53-.28-1.19.15-0.75,0.51,6.16,5.09,8.43,12,6.33,18.31a16.08,16.08,0,0,1-4.6-9.67c0-.42-0.83-0.47-1-0.1a20.84,20.84,0,0,0-2.26,6.52c-2.59-2.66-5-5.41-4.73-8.74,0-.4-0.93-0.5-1-0.1a45.88,45.88,0,0,0-1.38,8.47,35.84,35.84,0,0,0-3.72-4.62,0.11,0.11,0,0,0,0,0A10.83,10.83,0,0,1,455.6,5c0.2-.37-0.52-0.56-0.88-0.35-2.11,1.25-5.26,3.16-6.55,5.16a45.47,45.47,0,0,0-3.69-7.58,0.51,0.51,0,0,0-.92.42,18.28,18.28,0,0,1-.18,12,21.42,21.42,0,0,0-.62-4.16c-0.11-.4-1-0.3-1,0.1,0.06,2.79-1.4,5.3-4.24,7.3a13.86,13.86,0,0,0-1.92-5.68,0.61,0.61,0,0,0-1,.18,10.09,10.09,0,0,1-2.67,5.11,12.65,12.65,0,0,1,3.82-9.93c0.34-.33-0.44-0.74-0.83-0.43q-4.28,3.4-8.09,7A25.93,25.93,0,0,0,426.48,5c-0.09-.42-1-0.29-1,0.09C425,11,424.17,16.89,418.13,21.4a13.84,13.84,0,0,1,1.47-8.61c0.17-.34-0.53-0.59-0.88-0.35a28.45,28.45,0,0,0-7.28,7.63,46.8,46.8,0,0,0-1.38-8.47c-0.1-.4-1.06-0.31-1,0.1,0.23,3.32-2.14,6.08-4.73,8.74A20.69,20.69,0,0,0,402,13.92a0.56,0.56,0,0,0-1,.24,16.16,16.16,0,0,1-4.59,9.53c-2.09-6.35.18-13.22,6.33-18.31,0.44-.36-0.21-0.79-0.74-0.51a53,53,0,0,0-13.15,9.41A44.34,44.34,0,0,0,388.33,4c-0.06-.37-0.91-0.53-1-0.1-1.42,4.74-.69,10.79-5.85,14.53a12.82,12.82,0,0,0,.4-2.79c0-.36-0.72-0.49-1-0.18A30.33,30.33,0,0,1,374.38,21a8,8,0,0,0-.28-4.25,0.63,0.63,0,0,0-1,0,8.58,8.58,0,0,1-4.36,4.94c0.76-5.49,3.85-10.75,9-15.1,0.42-.36-0.23-0.82-0.75-0.51a52.72,52.72,0,0,0-17.08,15.65,41.68,41.68,0,0,0-1.37-15.13c-0.13-.45-1.14-0.26-1,0.19,1.83,6.38-.91,13-7.33,17.79a24.51,24.51,0,0,1-.87-7.89c0-.44-0.82-0.44-1-0.09A68.54,68.54,0,0,1,342.17,25c-1.5-7.39-.29-14.91,6.38-21.25,0.35-.33-0.44-0.74-0.83-0.43a49,49,0,0,0-12.61,14.2,74.6,74.6,0,0,0-3-16.88,0.62,0.62,0,0,0-.78-0.21,0.32,0.32,0,0,0-.26.31c1,9.28-2.75,19.5-10,27.38A111.78,111.78,0,0,1,319.38,7c0-.4-0.9-0.5-1-0.1-1,2.84-1.13,6.23-3,9-1.76,2.57-8,5.27-7.78,8.21-0.06-.86-0.13-1.73-0.22-2.59a94.92,94.92,0,0,1,2.44-10.27c1.07-3.6,2-7.43,4.6-10.69,0.32-.41-0.55-0.76-0.91-0.36a56.65,56.65,0,0,0-11.94,19.31,19.05,19.05,0,0,1-2,1.93q-0.76-1.57-1.63-3.11A22.06,22.06,0,0,1,306.27.77C306.7,0.42,306,0,305.53.27A49.73,49.73,0,0,0,293,11.14,49.7,49.7,0,0,0,280.43.27c-0.51-.31-1.17.15-0.74,0.51a22.06,22.06,0,0,1,8.37,17.53q-0.88,1.54-1.63,3.11a19.06,19.06,0,0,1-2-1.94A56.57,56.57,0,0,0,272.53.17c-0.36-.39-1.23,0-0.91.36,2.57,3.26,3.53,7.09,4.6,10.69a96.24,96.24,0,0,1,2.44,10.26c-0.09.87-.17,1.73-0.22,2.6-6.82-5.3-8.41-10.54-10.82-17.22-0.14-.39-1-0.31-1,0.1A111.6,111.6,0,0,1,265,28c0.15-.86-2.91-4.93-3.59-5.91-4.77-6.82-7.11-13.29-6.48-21a0.57,0.57,0,0,0-.6-0.68,0.55,0.55,0,0,0-.42.44,82.29,82.29,0,0,0-2.11,8.93c-0.33,1.84-1.92,6-.9,7.77a49.18,49.18,0,0,0-12.61-14.2c-0.39-.31-1.18.1-0.83,0.43,6.67,6.34,7.88,13.86,6.37,21.25a68.51,68.51,0,0,1-6.14-8.41c-0.21-.34-1.06-0.35-1,0.09a24.36,24.36,0,0,1-.88,7.89c-6.42-4.8-9.16-11.41-7.33-17.79,0.13-.45-0.89-0.64-1-0.19A41.68,41.68,0,0,0,226,21.77,52.72,52.72,0,0,0,208.94,6.12c-0.52-.31-1.17.15-0.75,0.51,5.19,4.35,8.28,9.62,9,15.1a8.57,8.57,0,0,1-4.36-4.93,0.53,0.53,0,0,0-1,0,8.08,8.08,0,0,0-.28,4.25,30.3,30.3,0,0,1-6.48-5.62c-0.26-.3-1-0.18-1,0.18a12.79,12.79,0,0,0,.4,2.79c-5.16-3.74-4.42-9.79-5.85-14.53-0.13-.43-1-0.27-1,0.1a44.32,44.32,0,0,0-.51,10.32A52.91,52.91,0,0,0,184,4.87c-0.53-.28-1.19.15-0.75,0.51,6.16,5.09,8.43,12,6.33,18.31A16.08,16.08,0,0,1,185,14c0-.42-0.83-0.47-1-0.1a20.83,20.83,0,0,0-2.26,6.52c-2.59-2.66-5-5.41-4.73-8.74,0-.4-0.93-0.5-1-0.1a45.9,45.9,0,0,0-1.38,8.47,35.85,35.85,0,0,0-3.72-4.62,0.11,0.11,0,0,0,0,0A10.83,10.83,0,0,1,170.49,5c0.2-.37-0.52-0.56-0.88-0.35-2.11,1.25-5.26,3.16-6.55,5.16a45.48,45.48,0,0,0-3.69-7.59,0.51,0.51,0,0,0-.92.42,18.28,18.28,0,0,1-.18,12,21.41,21.41,0,0,0-.62-4.16c-0.11-.4-1-0.3-1,0.1,0.06,2.79-1.4,5.3-4.24,7.3a13.86,13.86,0,0,0-1.92-5.68,0.61,0.61,0,0,0-1,.18,10.09,10.09,0,0,1-2.67,5.11,12.65,12.65,0,0,1,3.82-9.93c0.34-.33-0.44-0.74-0.83-0.43q-4.28,3.4-8.09,7A25.92,25.92,0,0,0,141.37,5c-0.09-.42-1-0.29-1,0.09C139.9,11,139.06,16.89,133,21.4a13.84,13.84,0,0,1,1.47-8.61c0.17-.34-0.53-0.59-0.88-0.35a28.45,28.45,0,0,0-7.28,7.63A46.81,46.81,0,0,0,125,11.6c-0.1-.4-1.06-0.31-1,0.1,0.23,3.32-2.14,6.08-4.73,8.74a20.69,20.69,0,0,0-2.26-6.52,0.56,0.56,0,0,0-1,.24,16.16,16.16,0,0,1-4.59,9.53c-2.09-6.35.18-13.22,6.33-18.31,0.44-.36-0.21-0.79-0.74-0.51a53,53,0,0,0-13.15,9.41A44.33,44.33,0,0,0,103.23,4c-0.06-.37-0.91-0.53-1-0.1-1.42,4.74-.69,10.79-5.85,14.53a12.8,12.8,0,0,0,.4-2.79c0-.36-0.72-0.49-1-0.18A30.33,30.33,0,0,1,89.27,21,8,8,0,0,0,89,16.79a0.63,0.63,0,0,0-1,0,8.58,8.58,0,0,1-4.36,4.94c0.76-5.49,3.85-10.75,9-15.1,0.42-.36-0.23-0.82-0.75-0.51A52.72,52.72,0,0,0,74.83,21.77,41.68,41.68,0,0,0,73.46,6.63c-0.13-.45-1.14-0.26-1,0.19,1.83,6.38-.91,13-7.33,17.79a24.51,24.51,0,0,1-.87-7.89c0-.44-0.82-0.44-1-0.09A68.55,68.55,0,0,1,57.07,25c-1.5-7.39-.29-14.91,6.38-21.25C63.79,3.46,63,3,62.62,3.35A49,49,0,0,0,50,17.55,74.6,74.6,0,0,0,47,.67,0.62,0.62,0,0,0,46.19.46a0.32,0.32,0,0,0-.26.31c1,9.28-2.75,19.5-10,27.38A111.79,111.79,0,0,1,34.27,7c0-.4-0.9-0.5-1-0.1-1,2.84-1.13,6.23-3,9-1.76,2.57-8,5.27-7.78,8.21a71.47,71.47,0,0,0-1.64-11.21,0.52,0.52,0,0,0-1,0c-0.75,3.68-3.07,7-6.78,9.67C12.18,14.79,13.59,7,21.17.77,21.6,0.42,20.94,0,20.42.27c-9.86,6-14,8-18.53,21.54C0.39,26.31,0,36,0,36V48.29H587.33C585.14,40.51,596.55,9.81,565.54.27Z"
          style="fill:#b4d27e"/>
</svg>