<svg xmlns="http://www.w3.org/2000/svg" viewBox="0 0 93.1 63.59">
    <g id="elephant">
        <path d="M436.92,338.89l-1.44-.87,0.78,0.27,0.2-.46-1.82-1,0-.11c-0.68-2.24-2.07-14.76-5.33-21.7-1.12-2.39-2.22-2.66-2.77-2.61h0c-3.06-4-8.07-6.89-14.91-7.71,1-7.64-.93-12.41-10.32-13.31-8.09-.78-13.8,5.83-15.5,8.09a14.24,14.24,0,0,0-9.12-3.36,14.09,14.09,0,0,0-8,2.5c-2.51-2.82-7.58-7.24-14.28-6.6-11.87,1.14-11.87,8.46-9,19.95,0,0,1.26,2.65-.38,6.56-1.54,3.68-2.19,9.15,6.66,10.31,0.17,4.14.6,12.55,11.18,13.55,6.58,0.62,10.68-2,13.24-5.71a43.79,43.79,0,0,0,.74,15.33s3,3.58,11,0l-2.19-17.92a22.9,22.9,0,0,0,3.61,2.95c0,5,.21,11.79,1.41,16.76a14.47,14.47,0,0,0,11.43-.12,75.57,75.57,0,0,0-1.31-12.14,37.21,37.21,0,0,0,6.7.6,34.73,34.73,0,0,0,4.17-.25,37.73,37.73,0,0,0,1,8.12s2.77,3.58,10.15,0l-1.28-11.33q0.79-.48,1.51-1a83.38,83.38,0,0,0,1.33,14,12.73,12.73,0,0,0,11.27-.13s-0.47-5-1.42-11.47v0h0.17l0-1.07,0.79,1.26,0.39-.12,0.48-.3-0.7-1.24,0.9,1.24Zm-73.15-1.73c-6.81-.79-7.37-5.46-7.07-8.27a11.94,11.94,0,0,0,6.42-3.49,8.81,8.81,0,0,0,4.21,3.57,6.54,6.54,0,0,1-3.74,5.22s-2.49.59-.94,1.39c1.2,0.62,5,.11,7.22-2.44C368.93,335.71,367.11,337.54,363.76,337.15Z"
              transform="translate(-343.82 -291.39)" style="fill:#b099c9"/>
        <path d="M436.92,338.89l-1.44-.87,0.77,0.27,0.2-.46-1.82-1,0-.11c-0.67-2.24-2.07-14.76-5.33-21.7-1.12-2.39-2.22-2.66-2.77-2.61a17,17,0,0,1,1.43,2.22h0l0.12,0.25A17.37,17.37,0,0,1,429,317c2.38,6.08,4.11,15.62,5.21,23.14h0.17l0-1.06,0.79,1.26,0.39-.12,0.48-.3-0.7-1.24,0.9,1.24Z"
              transform="translate(-343.82 -291.39)" style="fill:#662f8f"/>
        <path d="M428.6,352.16s-0.34-2.54,1-2.58,1.28,2.54,1.28,2.54A2.75,2.75,0,0,1,428.6,352.16Z"
              transform="translate(-343.82 -291.39)" style="fill:#662f8f"/>
        <path d="M432.08,351.62s-0.5-2.09.48-2.28c0,0,1.32-.12,1.3,2A1.57,1.57,0,0,1,432.08,351.62Z"
              transform="translate(-343.82 -291.39)" style="fill:#662f8f"/>
        <path d="M427.52,351.8s0.21-2.33-.78-2.37c0,0-1.28,0-1,2A1.86,1.86,0,0,0,427.52,351.8Z"
              transform="translate(-343.82 -291.39)" style="fill:#662f8f"/>
        <path d="M408.1,311.46c2.39-9.87,2.39-16.17-7.39-17.14-7-.7-11.82,5.56-13,7.21a18.19,18.19,0,0,1,4.22,11.8c0,2.65.09,5.16-.13,7.41,1.64,2.68,4.61,5.68,9.6,5.38,8.85-.54,8.33-5.64,7-9A7.57,7.57,0,0,1,408.1,311.46Z"
              transform="translate(-343.82 -291.39)" style="fill:#662f8f"/>
        <path d="M362.65,335.57c1.2,0.62,5,.11,7.21-2.44a14.72,14.72,0,0,0,.72-3.18,15.71,15.71,0,0,1-3.27-1,6.53,6.53,0,0,1-3.74,5.22S361.1,334.77,362.65,335.57Z"
              transform="translate(-343.82 -291.39)" style="fill:#662f8f"/>
        <path d="M384.32,336.46a6.56,6.56,0,0,1-2.36-6.33c-0.9.13-1.88,0.22-3,.28a25,25,0,0,1-.94,2.7c1.32,3.61,5.4,5.28,6.83,4.93C386.6,337.61,384.32,336.46,384.32,336.46Z"
              transform="translate(-343.82 -291.39)" style="fill:#662f8f"/>
        <ellipse cx="372.74" cy="310.42" rx="2.17" ry="1.47" transform="translate(-335.37 339.33) rotate(-81.11)"
                 style="fill:#662f8f"/>
        <ellipse cx="379.32" cy="310.93" rx="2.22" ry="1.54" transform="translate(-383.59 274.34) rotate(-70.64)"
                 style="fill:#662f8f"/>
        <path d="M395.27,354.43s-0.34-2.54,1-2.58,1.28,2.54,1.28,2.54A2.75,2.75,0,0,1,395.27,354.43Z"
              transform="translate(-343.82 -291.39)" style="fill:#662f8f"/>
        <path d="M398.75,353.9s-0.5-2.09.48-2.28c0,0,1.32-.12,1.3,2A1.57,1.57,0,0,1,398.75,353.9Z"
              transform="translate(-343.82 -291.39)" style="fill:#662f8f"/>
        <path d="M394.19,354.07s0.21-2.33-.78-2.38c0,0-1.28,0-1,2A1.86,1.86,0,0,0,394.19,354.07Z"
              transform="translate(-343.82 -291.39)" style="fill:#662f8f"/>
        <path d="M371.6,321.93a7.73,7.73,0,0,1,7.65-.31S375.25,318.15,371.6,321.93Z" transform="translate(-343.82 -291.39)"
              style="fill:#662f8f"/>
        <path d="M379.11,325s-3.81-3.25-7.29.29a7.48,7.48,0,0,1,7.29-.29" transform="translate(-343.82 -291.39)"
              style="fill:#662f8f"/>
        <path d="M378.77,328.89s-3.75-3.25-7.18.29a7.28,7.28,0,0,1,7.18-.29" transform="translate(-343.82 -291.39)"
              style="fill:#662f8f"/>
        <path d="M376.7,332.36s-2.91-2.13-5.56.16a6.52,6.52,0,0,1,5.56-.16" transform="translate(-343.82 -291.39)"
              style="fill:#662f8f"/>
        <path d="M350.93,323.25a2.28,2.28,0,0,1,2.85.32c4.89-.83,4,1.51,3.4,2.54a10,10,0,0,0,4.84-2.63l0-.14-0.08-.25-0.09-.31-0.07-.26-0.08-.31-0.06-.28-0.07-.31-0.06-.29-0.05-.31c0-.1,0-0.2,0-0.3s0-.21,0-0.32l0-.31c0-.11,0-0.21,0-0.32s0-.21,0-0.32,0-.22,0-0.33,0-.22,0-0.33,0-.22,0-0.33,0-.22,0-0.34,0-.22,0-0.33l0-.35c0-.11,0-0.22,0-0.33s0-.23,0-0.35,0-.23,0-0.35,0-.23,0-0.35,0-.24,0-0.36,0-.23,0-0.35,0-.26,0-0.39v-0.33c0-.17,0-0.33,0-0.5v-1c0-.31,0-0.62,0-0.93,0-.1,0-0.2,0-0.29s0-.42,0-0.62,0-.23,0-0.34,0-.38.07-0.57,0-.23.05-0.34,0.06-.37.1-0.55l0.07-.33c0-.19.08-0.37,0.13-0.56l0.08-.3c0-.19.1-0.38,0.16-0.57l0.08-.27c0.06-.21.13-0.41,0.21-0.62l0.07-.2q0.13-.36.28-0.71l0-.09a17.45,17.45,0,0,1,2.19-3.78l0,0c0.17-.22.34-0.43,0.52-0.64l0,0c0.18-.21.36-0.41,0.55-0.61l0,0q0.29-.31.59-0.6c-2.25-2.35-6.28-5.47-11.48-5-10,1-10,7.12-7.54,16.78a7.13,7.13,0,0,1-.32,5.52c-1.15,2.75-1.71,6.68,3.39,8.21A1.55,1.55,0,0,1,350.93,323.25Z"
              transform="translate(-343.82 -291.39)" style="fill:#662f8f"/>
    </g>

</svg>