<svg xmlns="http://www.w3.org/2000/svg" viewBox="0 0 115.36 183.82">
    <g id="giraffe">
        <path d="M289.66,84.7a23.35,23.35,0,0,0-3.49-1.93c5.2-2.25,4-8.52,4-8.52-4.73-1.26-7.69,3.91-9,7l-0.84-.11,1.3-8.55s0.47-.08,1-1.75c0.54-1.85-2.45-2.67-4.2-1.28s0.84,3.21.84,3.21l-0.46,8.28a12.35,12.35,0,0,0-3.33.41l-1.12-8.26s0.43-.22.43-2c0-1.93-3.1-1.85-4.38,0s1.71,2.83,1.71,2.83L273.95,82l-0.26.12c-1.45-2.71-4.51-6.87-9.31-5.82A6.71,6.71,0,0,0,266,82.08l-0.38,1.73L268,85.27l-2.74-.36,0.18,2.74H268l-2.56,1.1-0.18,3.1,2.74-.55-2.56,1.64v2.92L267,95.4l-1.73,1.73L265,100.06l1.64,0.18-1.46.73L265,103.89l1.46-.18L265,104.8l-0.46,3.29,1.19,0.36-1.09.46-0.18,4.56,1.37-.27-1.46,1.28v3.65l0.73,0.27-0.46.46-0.55,4.2,1.09,0.37-0.91.27s-0.45,9-1,15.77c-1.81,10.16-4,19.54-6.5,25.44l-33.24,1.7c-0.34-.05-0.68-0.09-1-0.12l-0.3,0-0.72,0h-0.31l-0.8,0h-0.17c-0.32,0-.63.05-0.94,0.09l-0.21,0-0.71.13-0.26.06-0.7.18-0.18.05c-0.3.09-.59,0.19-0.87,0.3l-0.05,0c-0.26.1-.52,0.22-0.77,0.34l-0.18.09c-0.22.11-.44,0.23-0.66,0.36l-0.14.08a12.23,12.23,0,0,0-1.49,1.07l-0.08.08q-0.31.26-.61,0.55l-0.09.09a13.3,13.3,0,0,0-1.26,1.45h0c-0.19.25-.37,0.51-0.54,0.78l-0.06.1c-0.17.27-.34,0.55-0.49,0.83h0c-6,9.31-11.42,19.27-22.41,23.62l-0.09-.22-4.1-1.11-0.11,1.78,1.41,0.27-1.89.68,0,0.55,0.27,0.72,1.83-.57-1.89.84,1.53,1.61,1.58-1.79-0.72,1.15,1.62,1L188.3,199l0.18-.07c9.21-3.78,13.8-9.13,19-16.93,0.12,0,.25,0,0.26.81A19.5,19.5,0,0,0,215,198.1c-0.64,16-2.16,49.55-2.21,50.64h0l-0.09,1.82,8.12,0-0.37-1.79h0c-2.35-6.58-1.48-33.72-.83-47.88a19.47,19.47,0,0,0,4.18,1.23c1,16,1.45,46.37,1.46,47.38h0v0h0l0.13,1.65,6.76-.49a11.64,11.64,0,0,0-.37-1.91h0c-2.76-6-3.56-31.74-3.8-46.35h32.84a17.9,17.9,0,0,0,2.88-.22c-0.6,16-1.92,47.72-2,48.76h0l-0.32,1.78,7.62-.21-0.36-1.57h0c-2.3-7-1.18-37.76-.61-50.21a12.94,12.94,0,0,0,2.5-1.74c0.92,14.69,1.39,49.38,1.41,50.49h0l-0.14,1.87,6.16-.09-0.55-2.51h0c-2.89-7.48-3.23-45.79-3.27-54.71a26.59,26.59,0,0,0,2.18-11.17v0h0v-0.07q-0.3-2-.65-3.84c-3.05-22.17,1.52-63.17,3.14-76.32,7,4.3,15,4.14,18.05-.48C300.1,97.31,296.86,89.52,289.66,84.7Z"
              transform="translate(-182.77 -68.89)" style="fill:#ffd44f"/>
        <path d="M264.31,123.7s-0.45,9-1,15.77c3.9-21.92,6.1-47.48,6.27-49.59a7.83,7.83,0,0,1,1.19-5.2c0.09-.14.19-0.27,0.29-0.41A8.3,8.3,0,0,1,266,82.08l-0.38,1.73L268,85.27l-2.74-.36,0.18,2.74H268l-2.56,1.09-0.18,3.1,2.74-.55-2.56,1.64v2.92L267,95.4l-1.73,1.73L265,100.06l1.64,0.18-1.46.73L265,103.89l1.46-.18L265,104.8l-0.46,3.29,1.19,0.37-1.09.46-0.18,4.56,1.37-.27-1.46,1.28v3.65l0.73,0.27-0.46.46-0.55,4.2,1.09,0.37Z"
              transform="translate(-182.77 -68.89)" style="fill:#3c2417"/>
        <path d="M249,176c-3.72,4.19-4.43,9.64-1.58,12.17s8.18,1.18,11.9-3,4.43-9.64,1.58-12.17S252.68,171.84,249,176Z"
              transform="translate(-182.77 -68.89)" style="fill:#3c2417"/>
        <path d="M274.18,195c0-.37,0-0.71,0-1a26.59,26.59,0,0,0,2.18-11.17v0h0v-0.07q-0.3-2-.65-3.84c0-.31-0.08-0.62-0.12-0.94a4.76,4.76,0,0,0-.92,0c-3.51.39-5.91,4.61-5.37,9.42C269.69,191.07,271.7,194,274.18,195Z"
              transform="translate(-182.77 -68.89)" style="fill:#3c2417"/>
        <path d="M274.78,153c0.09-3.56.25-7.17,0.45-10.75a3.05,3.05,0,0,0-1.05-.07c-2.23.25-3.77,2.87-3.44,5.86C271,150.72,272.78,152.79,274.78,153Z"
              transform="translate(-182.77 -68.89)" style="fill:#3c2417"/>
        <path d="M264.12,159.53c3-3.42,3.54-7.93,1.13-10.07a4.8,4.8,0,0,0-3.64-1.09,110.71,110.71,0,0,1-4,14.58A9.56,9.56,0,0,0,264.12,159.53Z"
              transform="translate(-182.77 -68.89)" style="fill:#3c2417"/>
        <path d="M233.64,173.91c4.94,0,8.95-2.29,8.95-5.11a4,4,0,0,0-1.8-3.07l-15.13.77a3.46,3.46,0,0,0-1,2.3C224.69,171.62,228.7,173.91,233.64,173.91Z"
              transform="translate(-182.77 -68.89)" style="fill:#3c2417"/>
        <path d="M241,192.34c-3.47-3.38-8.27-4.07-10.74-1.54s-1.65,7.32,1.82,10.69a11.71,11.71,0,0,0,1,.9h10.2C245.15,199.75,244.21,195.45,241,192.34Z"
              transform="translate(-182.77 -68.89)" style="fill:#3c2417"/>
        <path d="M214.71,197.82c3-1,5-4.84,4.47-9.22-0.54-4.81-3.82-8.39-7.33-8a5.62,5.62,0,0,0-4.12,2.92A19.49,19.49,0,0,0,214.71,197.82Z"
              transform="translate(-182.77 -68.89)" style="fill:#3c2417"/>
        <path d="M267,114.55c-0.46,3.71-1,7.63-1.54,11.6a2.6,2.6,0,0,0,2.09.88c1.92-.22,3.16-3.21,2.77-6.68C270,117.41,268.6,115.07,267,114.55Z"
              transform="translate(-182.77 -68.89)" style="fill:#3c2417"/>
        <path d="M287.4,104.62a8.32,8.32,0,0,1-3.28-.8h0a6.75,6.75,0,0,1-3.83-5.54h0a0.36,0.36,0,0,1,.31-0.41h0a0.37,0.37,0,0,1,.41.31h0a6,6,0,0,0,3.43,5h0a7.63,7.63,0,0,0,3,.73h0a0.36,0.36,0,0,1,.32.41h0a0.36,0.36,0,0,1-.36.32h0Z"
              transform="translate(-182.77 -68.89)" style="fill:#3c2417"/>
        <path d="M182.77,198.16l1.89-.68-1.41-.27,0.11-1.78,4.1,1.11,1,2.22-1.41,2.9-1.62-1,0.72-1.15-1.58,1.79L183,199.7l1.89-.84-1.83.57-0.27-.72ZM284.11,86.07a1.2,1.2,0,1,0,.75-1.83A1.46,1.46,0,0,0,284.11,86.07ZM279.2,87a1.25,1.25,0,1,0,.31-2A1.5,1.5,0,0,0,279.2,87ZM296,97.46a0.77,0.77,0,1,0,.5-1.14A0.9,0.9,0,0,0,296,97.46Zm-3.15.71A0.72,0.72,0,1,0,293,97,0.91,0.91,0,0,0,292.84,98.16ZM272,249.47l-0.14,1.87,6.16-.09-0.55-2.51Zm-10.22,1.46-0.32,1.78,7.62-.21-0.36-1.57h-6.94Zm-36.46-1.46,0.13,1.67,6.75-.49a11.85,11.85,0,0,0-.36-1.92Zm-4.8-.73h-7.67l-0.09,1.82,8.12,0Z"
              transform="translate(-182.77 -68.89)" style="fill:#3c2417"/>
    </g>

</svg>