<svg xmlns="http://www.w3.org/2000/svg" viewBox="0 0 83.16 68.66">
    <g id="hippo">
        <path d="M424.8,426.81a17.37,17.37,0,0,0-.82-1.71c4.58-2.84,1.82-8.68.33-9.59-1.83-1.12-1.49.48-1.49,0.48a5.24,5.24,0,0,1,0,2.82,3.34,3.34,0,0,1-1.86,2.39c-5.33-5.19-14.08-7.06-23.85-7.06-8.21,0-15.79.89-21.19,4.18q-0.23-.26-0.48-0.51a22.14,22.14,0,0,0-3.78-10.5c4.09-.24,4.14-2.93,4.14-3.84a1.44,1.44,0,0,0-.37-1.22c-2.63,0-4.11,2.63-4.68,3.94a9.54,9.54,0,0,0-7.2-3.5,9.32,9.32,0,0,0-6.79,3.25,6.53,6.53,0,0,0-4.59-3.57s-0.91-.06-0.49,1.26c0.34,1.09,1.3,4.44,3.66,4.06a23,23,0,0,0-3.81,10.53,10,10,0,0,0-2.78,6.75c0,6.42,6.68,11.63,14.93,11.63h0.13c-1.11,6.79-2.64,19.71-.4,30.37,0,0,3.19,4.85,11.71,0l-1.78-18.45a24.69,24.69,0,0,0,2.18,2.08A119.39,119.39,0,0,0,377,469.38a12.09,12.09,0,0,0,12-.16s0-5.46-.84-12.41a37.74,37.74,0,0,0,9,1.07,38.91,38.91,0,0,0,4.82-.3,53.07,53.07,0,0,0,.93,6.67s3.19,4.85,11.71,0l-1-10.2q1.15-.59,2.21-1.27a101.16,101.16,0,0,0,1.59,14.83,15.75,15.75,0,0,0,14.53-.18S431.07,440.61,424.8,426.81Z"
              transform="translate(-348.79 -402.24)" style="fill:#218fbd"/>
        <ellipse cx="364.75" cy="408.25" rx="1.02" ry="1.51" transform="translate(-407.66 -340.77) rotate(-8.92)"
                 style="fill:#293b8e"/>
        <ellipse cx="360.18" cy="408.61" rx="1.07" ry="1.54" transform="translate(-463.8 -259.86) rotate(-19.35)"
                 style="fill:#293b8e"/>
        <path d="M371.67,415.13a1.5,1.5,0,0,0,.36-0.75,2.45,2.45,0,0,0-4.69-.71v0a19,19,0,0,0-3.62-.35,18.63,18.63,0,0,0-5.79.91,2.24,2.24,0,0,0-2.59-1.19,2.16,2.16,0,0,0-2,2.21,1.57,1.57,0,0,0,.58,1c-3.13,2.13-5.11,5.26-5.11,8.76,0,6.42,6.68,11.63,14.93,11.63s14.93-5.21,14.93-11.63C378.65,420.82,375.86,417.18,371.67,415.13Zm-3.21-1.27a1.49,1.49,0,1,1,1.19,1.23A1.26,1.26,0,0,1,368.46,413.86Zm-12.89,2.26a1,1,0,1,1,1.27-1A1.16,1.16,0,0,1,355.57,416.12ZM373.66,426a11.23,11.23,0,0,1-1.4,2.34,12.52,12.52,0,0,0,.93.86c0.83,0.71-1.35,2.43-1.85,2.83s-1.46-1.25-1.49-1.29a11.23,11.23,0,0,1-7.88,2.13,12.26,12.26,0,0,0-.21,1.23c-0.13,1.08-2.77.2-3.38,0s0.06-1.52.23-1.87c-0.56-.16-1.13-0.36-1.72-0.59a0.31,0.31,0,0,1-.17-0.34,0.13,0.13,0,0,1,.19-0.09c12.56,4.84,16.39-5.36,16.39-5.36a0.13,0.13,0,0,1,.16-0.1C373.75,425.79,373.66,426,373.66,426Z"
              transform="translate(-348.79 -402.24)" style="fill:#293b8e"/>
        <path d="M381.65,470.31s-0.39-3,1.14-3,1.5,3,1.5,3A3.2,3.2,0,0,1,381.65,470.31Z"
              transform="translate(-348.79 -402.24)" style="fill:#293b8e"/>
        <path d="M385.7,469.68s-0.58-2.44.56-2.65c0,0,1.54-.14,1.52,2.34A1.83,1.83,0,0,1,385.7,469.68Z"
              transform="translate(-348.79 -402.24)" style="fill:#293b8e"/>
        <path d="M380.38,469.88s0.25-2.71-.91-2.77c0,0-1.49,0-1.22,2.35A2.17,2.17,0,0,0,380.38,469.88Z"
              transform="translate(-348.79 -402.24)" style="fill:#293b8e"/>
        <path d="M423.34,468.72s-0.46-3.44,1.32-3.49,1.74,3.43,1.74,3.43A3.71,3.71,0,0,1,423.34,468.72Z"
              transform="translate(-348.79 -402.24)" style="fill:#293b8e"/>
        <path d="M428,468s-0.67-2.82.65-3.08c0,0,1.78-.17,1.77,2.71A2.12,2.12,0,0,1,428,468Z"
              transform="translate(-348.79 -402.24)" style="fill:#293b8e"/>
        <path d="M421.87,468.24s0.29-3.15-1.05-3.22c0,0-1.73,0-1.41,2.73C419.41,467.75,420.06,468.56,421.87,468.24Z"
              transform="translate(-348.79 -402.24)" style="fill:#293b8e"/>
        <path d="M371.68,406.51s2-3.42,3.2-3.06C374.88,403.45,375.62,406.12,371.68,406.51Z"
              transform="translate(-348.79 -402.24)" style="fill:#293b8e"/>
        <path d="M352.37,403.9s3.24,1,3,2.94C355.41,406.84,353.68,408,352.37,403.9Z" transform="translate(-348.79 -402.24)"
              style="fill:#293b8e"/>
    </g>

</svg>