<svg xmlns="http://www.w3.org/2000/svg" viewBox="0 0 60.95 85.82">
    <g id="leopard">
        <path d="M418.1,242.05c3.41-31.32-6.28-40.72-10.14-43.18,2.79-1.6,4.62-4,4.75-6.76a6.84,6.84,0,0,0-.87-3.64,17.93,17.93,0,0,0,.2-1.9,16.69,16.69,0,0,0-1.24-7.3c1.62-1.26,3.56-7.71,2.14-8.14a8.56,8.56,0,0,0-7.87,1.54,10.57,10.57,0,0,0-4.56-1.3,10.46,10.46,0,0,0-3.32.36c-0.79-1.47-4.17-7.27-6.61-3.72-1,1.51-1.89,7.13.06,8.36a16.34,16.34,0,0,0-3.14,9q0,0.59,0,1.18a7.06,7.06,0,0,0-1.77,4.24c-0.17,3.45,1.27,6.33,5.27,8.14-2.38,1-5.39,3.18-7.2,8.12h0l0,0.08a23.79,23.79,0,0,0-1,3.82c-1.22,3.73-3.65,9.09-7.88,11.14a10.55,10.55,0,0,0-2.13,1.38c-1.43,0-2.54,1.59-2.54,1.59S343,256.46,377,252.34a16.64,16.64,0,0,0,7.21-2.52c1.35,0.94,3.8.91,6.61,0.91,4.26,0,7.71.08,7.71-3.29a5,5,0,0,0-.5-2.16,23.09,23.09,0,0,0,7.66-.09,4.92,4.92,0,0,0-.25,1.55c0,3.38,3.45,3.29,7.71,3.29s7.71,0.08,7.71-3.29A5.69,5.69,0,0,0,418.1,242.05Zm-53.76-.81a37.88,37.88,0,0,1,1.84-4.08c-0.17,1.14-.3,2.31-0.37,3.5A8.62,8.62,0,0,0,364.34,241.24Zm6.25,8.44c3.2-.06,5.55-0.48,5.59-3.2a59.45,59.45,0,0,0,7,.26,5.09,5.09,0,0,0-.05.67C380.74,249.8,375.19,250.3,370.59,249.68Z"
              transform="translate(-359.89 -166.89)" style="fill:#dbb544"/>
        <path d="M388.67,244.8" transform="translate(-359.89 -166.89)" style="fill:#3c2417"/>
        <path d="M410.5,178.6c1-1.12,2.08-4.84,1.2-5.11a5.65,5.65,0,0,0-4.62.57A13.78,13.78,0,0,1,410.5,178.6Z"
              transform="translate(-359.89 -166.89)" style="fill:#3c2417"/>
        <path d="M391.18,175.72a12.67,12.67,0,0,1,4.26-3.33c-0.76-1.59-2.85-5.4-4.39-2.71C390.35,170.92,389.9,174.73,391.18,175.72Z"
              transform="translate(-359.89 -166.89)" style="fill:#3c2417"/>
        <ellipse cx="402.51" cy="178.4" rx="1.29" ry="1.9" transform="translate(-367.01 -149.89) rotate(-2.4)"
                 style="fill:#3c2417"/>
        <ellipse cx="396.72" cy="178.19" rx="1.35" ry="1.95" transform="translate(-394.37 -45.38) rotate(-16.7)"
                 style="fill:#3c2417"/>
        <path d="M384.22,244.35a7.41,7.41,0,0,0-1-3.09,1,1,0,0,1,.39-1.47,1.26,1.26,0,0,1,1.68.34,11,11,0,0,1,1.51,4.25l-0.56-.12-0.25-.72,0,0.71-0.37,0-0.27-.86v0.84l-0.41.08-0.25-1.12-0.06,1.15-0.33,0"
              transform="translate(-359.89 -166.89)" style="fill:#3c2417"/>
        <ellipse cx="29.42" cy="38.96" rx="1.98" ry="2.11" style="fill:#3c2417"/>
        <ellipse cx="11.73" cy="69.25" rx="1.98" ry="2.11" style="fill:#3c2417"/>
        <ellipse cx="21.01" cy="56.49" rx="1.98" ry="2.11" style="fill:#3c2417"/>
        <path d="M402.53,186.57a14.18,14.18,0,0,0-.29-4.28s0.33,4.62-.06,4.69" transform="translate(-359.89 -166.89)"
              style="fill:#3c2417"/>
        <ellipse cx="19.86" cy="66.19" rx="1.94" ry="2.23" style="fill:#3c2417"/>
        <ellipse cx="52.38" cy="44.12" rx="1.53" ry="1.58" style="fill:#3c2417"/>
        <ellipse cx="55.73" cy="70.37" rx="1.46" ry="1.84" style="fill:#3c2417"/>
        <ellipse cx="51.48" cy="73.58" rx="1.17" ry="0.86" style="fill:#3c2417"/>
        <ellipse cx="32.01" cy="65.6" rx="1" ry="1.76" style="fill:#3c2417"/>
        <ellipse cx="26.32" cy="53.98" rx="0.94" ry="1.17" style="fill:#3c2417"/>
        <ellipse cx="26.9" cy="61.44" rx="1.27" ry="1.28" style="fill:#3c2417"/>
        <ellipse cx="28.84" cy="46.18" rx="1.23" ry="1.47" style="fill:#3c2417"/>
        <ellipse cx="27.02" cy="68.71" rx="0.94" ry="1.23" style="fill:#3c2417"/>
        <ellipse cx="18.92" cy="72.35" rx="1.38" ry="1.47" style="fill:#3c2417"/>
        <path d="M365.43,232.43a1.53,1.53,0,0,0,1.42,1.45,29,29,0,0,1,.87-2.8,1.8,1.8,0,0,0-.64-0.12A1.56,1.56,0,0,0,365.43,232.43Z"
              transform="translate(-359.89 -166.89)" style="fill:#3c2417"/>
        <path d="M362.64,238.1a1.14,1.14,0,0,0,.82-1.29,1.39,1.39,0,0,0-.54-1.21c-0.34.63-.66,1.27-1,1.92A0.82,0.82,0,0,0,362.64,238.1Z"
              transform="translate(-359.89 -166.89)" style="fill:#3c2417"/>
        <path d="M363.44,245.53a10.42,10.42,0,0,1,.68-3.67h-0.19A1.87,1.87,0,0,0,363.44,245.53Z"
              transform="translate(-359.89 -166.89)" style="fill:#3c2417"/>
        <path d="M377.64,250a1.62,1.62,0,0,0,0-.36c-0.63.09-1.28,0.16-1.94,0.2,0,0.05,0,.11,0,0.16A1,1,0,1,0,377.64,250Z"
              transform="translate(-359.89 -166.89)" style="fill:#3c2417"/>
        <path d="M373.06,251.86a1.81,1.81,0,0,0-1.59.85c1,0,2,0,3.11-.13A1.85,1.85,0,0,0,373.06,251.86Z"
              transform="translate(-359.89 -166.89)" style="fill:#3c2417"/>
        <path d="M363.75,249.23a1.54,1.54,0,0,0-1.26,1.37,9.11,9.11,0,0,0,2.56,1.27,3.38,3.38,0,0,0,0-.54C365.1,250.17,364.49,249.23,363.75,249.23Z"
              transform="translate(-359.89 -166.89)" style="fill:#3c2417"/>
        <path d="M381.09,250.09a1.41,1.41,0,0,0,1.55-1.21,1.06,1.06,0,0,0-.38-0.79,9.29,9.29,0,0,1-2.64,1.17A1.56,1.56,0,0,0,381.09,250.09Z"
              transform="translate(-359.89 -166.89)" style="fill:#3c2417"/>
        <path d="M385.6,247.09a1.1,1.1,0,0,0-1.11,1.09,1.08,1.08,0,0,0,.54.93,5.89,5.89,0,0,0,1.27-1.78A1.12,1.12,0,0,0,385.6,247.09Z"
              transform="translate(-359.89 -166.89)" style="fill:#3c2417"/>
        <ellipse cx="48.35" cy="13.08" rx="0.88" ry="1.06" style="fill:#3c2417"/>
        <ellipse cx="48.09" cy="19.42" rx="1.32" ry="1.76" style="fill:#3c2417"/>
        <circle cx="29.85" cy="20.39" r="1.32" style="fill:#3c2417"/>
        <path d="M386.4,192.72a1.91,1.91,0,0,0-.57.08,7.41,7.41,0,0,0,.72,2.2,1.31,1.31,0,0,0,1.34-1.14A1.36,1.36,0,0,0,386.4,192.72Z"
              transform="translate(-359.89 -166.89)" style="fill:#3c2417"/>
        <path d="M388.79,182.43a2,2,0,0,0,1.85-2.11,2.11,2.11,0,0,0-1.22-2,16.21,16.21,0,0,0-1.45,3.87A1.65,1.65,0,0,0,388.79,182.43Z"
              transform="translate(-359.89 -166.89)" style="fill:#3c2417"/>
        <path d="M384.61,213.72a2,2,0,0,0-2-2.11h-0.12a31.33,31.33,0,0,1-1.42,3.42,1.93,1.93,0,0,0,1.55.79A2,2,0,0,0,384.61,213.72Z"
              transform="translate(-359.89 -166.89)" style="fill:#3c2417"/>
        <path d="M409.08,199.68a1.06,1.06,0,0,0-.54.88,1.36,1.36,0,0,0,1.5,1.14,1.8,1.8,0,0,0,.93-0.25A16.59,16.59,0,0,0,409.08,199.68Z"
              transform="translate(-359.89 -166.89)" style="fill:#3c2417"/>
        <path d="M416.85,220.46a1.58,1.58,0,0,0,1.32-.88q-0.27-2-.64-3.73a1.27,1.27,0,0,0-.67-0.2c-0.94,0-1.7,1.08-1.7,2.41S415.91,220.46,416.85,220.46Z"
              transform="translate(-359.89 -166.89)" style="fill:#3c2417"/>
        <path d="M418,228.62a1.3,1.3,0,0,0,.78-0.26c0-.93,0-1.83-0.09-2.7a1.29,1.29,0,0,0-.69-0.21A1.6,1.6,0,0,0,418,228.62Z"
              transform="translate(-359.89 -166.89)" style="fill:#3c2417"/>
        <path d="M369.61,227.12a2,2,0,0,0,1.81,1.26,2,2,0,0,0,2-2.11,2.09,2.09,0,0,0-1.53-2.05A15.65,15.65,0,0,0,369.61,227.12Z"
              transform="translate(-359.89 -166.89)" style="fill:#3c2417"/>
        <path d="M418.24,244.78c1.76,2.12,1.39,4.12,1.66,3.7C420.29,246.37,418.72,244.74,418.24,244.78Z"
              transform="translate(-359.89 -166.89)" style="fill:#3c2417"/>
        <path d="M410,249.53c0.36,0.34-.92-2.19.69-4A2.74,2.74,0,0,0,410,249.53Z" transform="translate(-359.89 -166.89)"
              style="fill:#3c2417"/>
        <path d="M415.06,245.58a6.37,6.37,0,0,1,.47,4s0.68,0.4.54-1.82S414.78,244.89,415.06,245.58Z"
              transform="translate(-359.89 -166.89)" style="fill:#3c2417"/>
        <path d="M395.71,245.74c1.59,2.25,1.06,4.22,1.35,3.83C397.58,247.49,396.19,245.75,395.71,245.74Z"
              transform="translate(-359.89 -166.89)" style="fill:#3c2417"/>
        <path d="M388,250c0.37,0.37-1-2.25,1.16-3.94A2.64,2.64,0,0,0,388,250Z" transform="translate(-359.89 -166.89)"
              style="fill:#3c2417"/>
        <path d="M392.58,246.18a6.36,6.36,0,0,1,.15,4.06s0.58,0.4.62-1.83S392.36,245.46,392.58,246.18Z"
              transform="translate(-359.89 -166.89)" style="fill:#3c2417"/>
        <path d="M373.65,244.74c1.76,2.12,1.39,4.12,1.65,3.7C375.66,246.33,374.13,244.7,373.65,244.74Z"
              transform="translate(-359.89 -166.89)" style="fill:#3c2417"/>
        <path d="M367.91,249.24c0.36,0.34-1.11-2.17.69-4A2.74,2.74,0,0,0,367.91,249.24Z"
              transform="translate(-359.89 -166.89)" style="fill:#3c2417"/>
        <path d="M371.18,245.32a6.37,6.37,0,0,1,.47,4s0.58,0.38.43-1.84S370.91,244.63,371.18,245.32Z"
              transform="translate(-359.89 -166.89)" style="fill:#3c2417"/>
        <path d="M406.57,194.23a1.84,1.84,0,0,1-1.5,1.43c-1,.25-4.7.34-5.64-1.7a20,20,0,0,1-.25-4,5.55,5.55,0,0,0,3.1-2.41c0.72-1.58.14-1.65-3.51-2.08s-0.64,3.8-.64,3.8a5.27,5.27,0,0,0,.81.67,19,19,0,0,0,.23,4s-0.59,2.19-2.44,2.21c-4.64,0-4.55-2.6-4.61-2.92s-0.32,0-.32,0-0.69,3.32,5,3.28a2.74,2.74,0,0,0,2.51-1.92,4.6,4.6,0,0,0,2.8,1.45c5.52,0.6,4.78-2.05,4.78-2.05S406.62,193.73,406.57,194.23Z"
              transform="translate(-359.89 -166.89)" style="fill:#3c2417"/>
        <path d="M397,186.28a14.23,14.23,0,0,1,.76-3.83s-0.72,3.35-.41,3.62" transform="translate(-359.89 -166.89)"
              style="fill:#3c2417"/>
    </g>

</svg>