<svg xmlns="http://www.w3.org/2000/svg" viewBox="0 0 60.02 85.83">
    <g id="lion">
        <path d="M517.89,224.55s-1.1-1.6-2.51-1.57a10.38,10.38,0,0,0-2.11-1.37,10.62,10.62,0,0,1-3.14-2.4,36.56,36.56,0,0,0-5-13.75l1.87-1.53-1.39-2.09,2.09,1.39,2.23-3.06-0.84-3.62,2,1.67,1.67-4.73L511.45,189l2.37,1.11V184l-2.42-2.8h2.23l-2.23-7.52-5.29-.28,2.05-2.62-6.51-3.23-3.9,2.79,1.59-3.46-8.08.56-0.48,5.69-2.84-5.87-5.38.12,0.62,2-3.41-1.67-3.46,1.48,0.87,1.73-3.16-.37-3.47,4.21,2,0.56-3.28,2.17-1.05,5,2.29,0.56-2.41,1.24,0.49,6.81,2-1.05L469.37,193l1.24,3.84,2.23-.68-1.24,2.29,2.79,4.7,1.3-1.36-0.37,2.17,2.26,2.17c-2.4,3.58-4.08,9.55-3.06,19.52,1.12,11,2.2,17.14,2.77,20.16a5.26,5.26,0,0,0-1.6,3.7c0,3.33,3.41,3.25,7.61,3.25s7.61,0.08,7.61-3.25a4.94,4.94,0,0,0-.47-2.09,23.13,23.13,0,0,0,7.55-.18,4.87,4.87,0,0,0-.26,1.57c0,3.33,3.41,3.25,7.61,3.25a19.29,19.29,0,0,0,5.65-.46l0.18,0C544.78,255.66,517.89,224.55,517.89,224.55Zm-4.95,24.59c0-.12,0-0.24,0-0.37a4.72,4.72,0,0,0,0-.61c1.11,0.63,2.83.73,4.84,0.75A25.65,25.65,0,0,1,512.95,249.14Zm9.27-9q-0.11-1.83-.37-3.57a36.55,36.55,0,0,1,1.91,4.27A8.32,8.32,0,0,0,522.22,240.11Z"
              transform="translate(-468.08 -166.89)" style="fill:#ffca09"/>
        <path d="M486.95,247.29c1.52,2.58.87,4.72,1.19,4.3C488.79,249.33,487.44,247.32,486.95,247.29Zm-8.38,4.2c0.32,0.43-.84-2.54,1.26-4.28A3.1,3.1,0,0,0,478.57,251.48Zm4.54-4.13a7.46,7.46,0,0,1-.07,4.49s0.54,0.5.7-2S482.93,246.55,483.11,247.35Zm6.54-63.27a1.82,1.82,0,1,0-1.63-1.3A1.52,1.52,0,0,0,489.65,184.08Zm4.65,0.21a1.79,1.79,0,1,0-1.2-1.62A1.48,1.48,0,0,0,494.3,184.29Zm23.61,40.25s-1.1-1.6-2.52-1.57c3.3,2.73,5.57,7.69,6.47,13.56,2.19,4.25,3.64,8.42,2.07,10.1,0-.19,0-0.41,0-0.65-0.13-2.56-1.33-3.17-.93-2.42a9.37,9.37,0,0,1,.66,3.34,9,9,0,0,1-3,1.41,6.25,6.25,0,0,1-.5-4.92c-0.6.28-1.24,2.78,0.4,4.93h0a24.58,24.58,0,0,1-9.36.65c-0.07-1.69-1-2.88-1.41-2.9a6.76,6.76,0,0,1,1.08,2.85,11.36,11.36,0,0,1-4.45-1.5c0-.44.09-0.72,0.09-0.72,0.12-.52-0.21-0.36-0.41.51-1.82-1.36-2.44-3.5-.69-6.63l5.2-3.28-0.88-1.06-2.08,1.3,1.51-2.91-0.72-.56-1.21-.5-1.58,2.72,1.32-3.09-2.95-.12,0.09,3.61L503.65,235l-1.16.18,0.41,4.58c-1.77,3.21-1.69,5.57-.73,7.29a5,5,0,0,0-.71,3.93c0.3,0.38,0-1.58.88-3.66a8.29,8.29,0,0,0,3.72,2.93c0.19,1.33.5,1,.5,1a8.24,8.24,0,0,1-.15-0.82,18.56,18.56,0,0,0,4.79,1.21C544.8,255.66,517.91,224.54,517.91,224.54Zm-15.08-20.48,1.11,2.37,3.06-2.51-1.39-2.09,2.09,1.39,2.23-3.06-0.84-3.62,1.95,1.67,1.67-4.73L511.46,189l2.37,1.11V184l-2.42-2.8h2.23l-2.23-7.52-5.29-.28,2.05-2.62-6.51-3.23-3.9,2.78,1.59-3.46-8.08.56-0.48,5.69L488,167.27l-5.38.12,0.62,2-3.41-1.67-3.46,1.49,0.87,1.73-3.16-.37-3.46,4.21,2,0.56-3.28,2.17-1.05,5,2.29,0.56-2.41,1.24,0.5,6.81,2-1.05-1.24,2.85,1.24,3.84,2.23-.68-1.24,2.29,2.79,4.7,1.3-1.36-0.37,2.17,3.09,3,0.68-1.73,1.36,3.09,2.91,1.36,1.05-1.24L483.87,210l2.79,1.42,1.11-2.29-0.25,2.91,1.36,0.62,0.8-3.47,0.5,3.47,2.35,0.31v-4.39l1.05,3.53,2.54-.8,0.43-3.4,0.5,2.6,1.46-1.17,0.26-2.51,0.84,2.23,3.36-1.95Zm0.54-27.8c2.78,2.58.25,5.12-2.08,4.89,0,0-.14-0.23-0.39-0.59,1.37-.13,2.6-1.63,1-3.16s-2.91,0-3.34.68a6.37,6.37,0,0,0-.57-0.36S500.23,173.34,503.37,176.27Zm-19.57-2.73c3.84-1.93,4.8,2.92,4.8,2.92a6.34,6.34,0,0,0-.89.28c-0.2-.7-1-2.69-3-1.65s-1.17,2.94.21,3.36c-0.28.23-.45,0.38-0.45,0.38C482.13,178.39,480.41,175.25,483.8,173.54Zm18,21.89c-0.67,4.36-6.28,7.12-12.52,6.16s-10.75-5.28-10.08-9.65a6.14,6.14,0,0,1,1.87-3.48q0-.5.12-1c1.06-6.86,6.52-11.72,12.19-10.84s9.41,7.15,8.35,14a14.75,14.75,0,0,1-.34,1.61A6,6,0,0,1,501.79,195.43Zm-6.14,1.19a1.54,1.54,0,0,1-1.3,1.19,2.23,2.23,0,0,1-2.88-1.42,17.54,17.54,0,0,1-.21-3.51,4.84,4.84,0,0,0,2.7-2.1c0.63-1.37.13-1.44-3.06-1.81s-0.56,3.31-.56,3.31a4.65,4.65,0,0,0,.71.59,16.54,16.54,0,0,0,.2,3.53,1.94,1.94,0,0,1-1.75,1.79c-1.92.13-2.43-1.08-2.48-1.36s-0.15,0-.15,0,0,1.77,2.6,1.69a2.22,2.22,0,0,0,1.92-1.53,2.6,2.6,0,0,0,2.28,1.26c2.33-.14,2.2-1.81,2.2-1.81S495.7,196.18,495.65,196.61Z"
              transform="translate(-468.08 -166.89)" style="fill:#a16327"/>
    </g>

</svg>