<svg xmlns="http://www.w3.org/2000/svg" viewBox="0 0 73.77 60.03">
    <g id="rhino">
        <path d="M426.94,74.94a0.15,0.15,0,0,0-.1-0.14,0.18,0.18,0,0,0-.1.13,11.8,11.8,0,0,1-4.39,6l-0.09-.16c-1.14-1.88-2.58-5-4.58-7.52a11.26,11.26,0,0,0,3.87-2.05c0.73-.55.18-3-3.11-4.58-2.31-1.11-2.67,2.41-2.68,4.62A7.2,7.2,0,0,0,410,69.39a7.94,7.94,0,0,0-6.07,2.74c0-2-.42-4.64-2.46-4.3-3.3.55-4.64,4.76-3.3,5.25a33,33,0,0,0,3.92,1.57,18.13,18.13,0,0,0-1.33,3,14.37,14.37,0,0,0-14.36-2.42,14.9,14.9,0,0,1-10.27.22c-12.21-9.39-33.89,9.16-15.57,25.72,0.43,0.39.87,0.76,1.31,1.12,2,3.43,4.24,7.88,4,10.68-0.44,5.08-2.31,10.46,0,11.48,1.86,0.83,10.71.55,10.38-2.32,0-.16,0-0.33-0.08-0.49l0.07,0c4.08,2,8.35-.54,5.17-5.36-1.42-2.15-1.41-4.91-.92-7.37a38.62,38.62,0,0,0,4.85-.21c1.09,3.84,2.14,8.67,1.3,10.79-1.51,3.77-4.58,9.38,9.38,5.75,0.62-.16.8-0.84,0.72-1.79,2.46,1,6.91.51,8.13-1.25,1.71-2.47-2.05-2.19-2.46-6.92-0.3-3.43,1.53-9.93,2.56-13.23,2.34,1.11,5.62,1.66,10.21,1,10.57-1.57,11-9.94,9.45-16.14C428.14,82.52,427.21,76.35,426.94,74.94Zm-52.56,33.29a67.38,67.38,0,0,0-.24,8.69,20.57,20.57,0,0,1-2-6.08,26.21,26.21,0,0,1-.25-3.25Q373.14,108,374.38,108.23ZM395.47,119c-0.36-.94-0.75-1.86-1.11-2.67-1.09-2.49-.4-6.4.44-9.66l0.29-.09C396.58,114.68,396,117.2,395.47,119Z"
              transform="translate(-353.48 -66.39)" style="fill:#b2b2b2"/>
        <path d="M416.54,72.29s-0.46-5.42,1.81-4.33,2.65,2.77,2.14,3.15S417.67,73.26,416.54,72.29Z"
              transform="translate(-353.48 -66.39)" style="fill:#010101"/>
        <path d="M403.24,73.57s0.67-4.92-1.6-4.54-3.2,3.28-2.27,3.62S402.56,74.33,403.24,73.57Z"
              transform="translate(-353.48 -66.39)" style="fill:#010101"/>
        <path d="M413.67,83.26c0,8.83,2.35,8,2.35,8C429.17,89.47,427.34,77,426.94,75a0.15,0.15,0,0,0-.1-0.15,0.18,0.18,0,0,0-.1.13c-3.08,8.86-12.07,8.34-13,8.26h0Z"
              transform="translate(-353.48 -66.39)" style="fill:#010101"/>
        <ellipse cx="415.4" cy="78.5" rx="0.81" ry="1.19" transform="translate(-356.36 -49.25) rotate(-2.36)"
                 style="fill:#010101"/>
        <ellipse cx="411.77" cy="78.37" rx="0.85" ry="1.22" transform="translate(-358.62 55.42) rotate(-16.73)"
                 style="fill:#010101"/>
        <path d="M419.88,93.26c-0.41,1.46.09,2.87,1.13,3.14s2.21-.7,2.63-2.17-0.09-2.87-1.13-3.14S420.3,91.79,419.88,93.26Z"
              transform="translate(-353.48 -66.39)" style="fill:#010101"/>
        <path d="M409.53,95.46c0.79,1.62,2.26,2.53,3.28,2s1.21-2.22.42-3.84-2.26-2.53-3.27-2S408.74,93.84,409.53,95.46Z"
              transform="translate(-353.48 -66.39)" style="fill:#010101"/>
        <path d="M390.31,125.42s-0.36-2.69,1-2.73,1.36,2.69,1.36,2.69A2.91,2.91,0,0,1,390.31,125.42Z"
              transform="translate(-353.48 -66.39)" style="fill:#010101"/>
        <path d="M393.36,125.1s-0.53-2.21.51-2.41c0,0,1.4-.13,1.38,2.12A1.66,1.66,0,0,1,393.36,125.1Z"
              transform="translate(-353.48 -66.39)" style="fill:#010101"/>
        <path d="M389.24,125.75s0.23-2.47-.83-2.52c0,0-1.36,0-1.1,2.13A2,2,0,0,0,389.24,125.75Z"
              transform="translate(-353.48 -66.39)" style="fill:#010101"/>
        <path d="M401.41,123.37s-1-2.1.15-2.49,1.91,1.94,1.91,1.94A3.05,3.05,0,0,1,401.41,123.37Z"
              transform="translate(-353.48 -66.39)" style="fill:#010101"/>
        <path d="M403.71,122.35s-1.21-1.52-.48-2c0,0,1-.61,1.83,1.14A1.41,1.41,0,0,1,403.71,122.35Z"
              transform="translate(-353.48 -66.39)" style="fill:#010101"/>
        <path d="M400.69,123.54s0.19-2.1-.7-2.15c0,0-1.16,0-.94,1.82A1.68,1.68,0,0,0,400.69,123.54Z"
              transform="translate(-353.48 -66.39)" style="fill:#010101"/>
        <path d="M379.08,121.64s-0.31-2.32.89-2.35,1.17,2.31,1.17,2.31A2.5,2.5,0,0,1,379.08,121.64Z"
              transform="translate(-353.48 -66.39)" style="fill:#010101"/>
        <path d="M378.48,121.66s0.18-2-.66-2c0,0-1.09,0-.89,1.72A1.58,1.58,0,0,0,378.48,121.66Z"
              transform="translate(-353.48 -66.39)" style="fill:#010101"/>
        <path d="M370.21,124.07s-0.36-2.69,1-2.73,1.36,2.69,1.36,2.69A2.91,2.91,0,0,1,370.21,124.07Z"
              transform="translate(-353.48 -66.39)" style="fill:#010101"/>
        <path d="M373.24,123.58s-0.53-2.21.51-2.41c0,0,1.39-.13,1.38,2.12A1.66,1.66,0,0,1,373.24,123.58Z"
              transform="translate(-353.48 -66.39)" style="fill:#010101"/>
        <path d="M368.45,124.17s0.23-2.47-.82-2.52c0,0-1.36,0-1.1,2.13A2,2,0,0,0,368.45,124.17Z"
              transform="translate(-353.48 -66.39)" style="fill:#010101"/>
        <path d="M381.76,118.8c-0.82.16-.4,1.92-0.4,1.92a1.9,1.9,0,0,0,.76.11,2.89,2.89,0,0,0,.36-1.7A0.93,0.93,0,0,0,381.76,118.8Z"
              transform="translate(-353.48 -66.39)" style="fill:#010101"/>
        <path d="M413.25,102s-7.34,1.1-7.61-6.39a0.32,0.32,0,0,1,.11-0.36c0.23-.11.3,0,0.3,0,0.09,7.26,7.19,6.39,7.19,6.39s0.2,0,.22.09S413.45,102,413.25,102Z"
              transform="translate(-353.48 -66.39)" style="fill:#010101"/>
    </g>

</svg>