<svg xmlns="http://www.w3.org/2000/svg" viewBox="0 0 49.19 69.27">
    <g id="tiger">
        <path d="M628.18,235.83c0-.13,0-0.25,0-0.38h0c0-.2,0-0.4.06-0.6l0.06-.6c0-.27,0-0.54.07-0.81l0-.56s0-.06,0-0.09h0c0.05-.68.1-1.34,0.14-2h0c0-.11,0-0.21,0-0.32s0-.25,0-0.37c0-.37,0-0.74.05-1.1v0c0-.38,0-0.75,0-1.12,0-.11,0-0.21,0-0.32s0-.23,0-0.34h0q0-1.26,0-2.44h0c0-.08,0-0.15,0-0.22q0-.45,0-0.88c0-.13,0-0.27,0-0.4,0-.35,0-0.7,0-1,0,0,0-.1,0-0.14h0c0-.6-0.08-1.19-0.12-1.76h0l0-.26,0-.23c0-.29-0.05-0.57-0.09-0.84v-0.13l-0.09-.74c0-.06,0-0.12,0-0.19l0-.16h0q-0.15-1.07-.33-2.06h0l0-.19-0.06-.3-0.1-.49-0.05-.26-0.15-.69,0-.19-0.09-.39h0q-0.33-1.33-.72-2.48h0l-0.16-.48,0-.11-0.18-.48-0.08-.2-0.14-.36L626,208.9l0-.1h0a23.32,23.32,0,0,0-1.31-2.67h0l-0.08-.13-0.09-.15-0.18-.29-0.06-.1-0.24-.37-0.07-.11-0.17-.25-0.09-.13-0.15-.21-0.09-.12-0.17-.22-0.07-.09-0.21-.27h0a12.76,12.76,0,0,0-3-2.7,6.94,6.94,0,0,0,3.84-5.45s0-.07,0-0.1h0c0-.09,0-0.18,0-0.27a0.15,0.15,0,0,1,0,0c0-.1,0-0.21,0-0.31s0-.07,0-0.1,0-.18,0-0.27v-0.07c0-.11,0-0.22-0.07-0.32l0-.08c0-.09,0-0.17-0.07-0.25l0-.09c0-.1-0.07-0.21-0.11-0.31h0a5.86,5.86,0,0,0-.33-0.72,13.51,13.51,0,0,0,.16-1.53c0-.27,0-0.53,0-0.79h0c0-.07,0-0.15,0-0.22s0-.18,0-0.27,0-.21,0-0.31l0-.26c0-.11,0-0.21,0-0.32l0-.25c0-.12,0-0.24-0.05-0.36s0-.13,0-0.19h0a12.93,12.93,0,0,0-.84-2.92c0.73-.56,1.54-2.42,1.92-4h0l0.05-.24h0l0.05-.28v-0.08l0-.21v-0.07c0-.09,0-0.18,0-0.26v0c0-.07,0-0.14,0-0.21s0,0,0-.07,0-.12,0-0.18v0c0-.07,0-0.14,0-0.2a0.19,0.19,0,0,0,0,0,1.05,1.05,0,0,0,0-.14v0l0-.13v0a0.64,0.64,0,0,0-.07-0.12l0,0-0.06-.07,0,0-0.11-.05-0.38-.11-0.12,0-0.26-.06-0.13,0-0.24,0-0.13,0-0.23,0h-0.8l-0.33,0h-0.07l-0.24,0h0a7.15,7.15,0,0,0-3.38,1.48,8.43,8.43,0,0,0-6.36-.76,14.76,14.76,0,0,0-1.65-2.47h0A7,7,0,0,0,609,176h0l-0.08-.07,0,0-0.08-.06,0,0-0.07-.05,0,0-0.07,0,0,0-0.06,0-0.05,0-0.06,0-0.05,0-0.06,0-0.05,0-0.06,0-0.06,0-0.06,0-0.06,0-0.06,0-0.06,0-0.06,0-0.06,0h-0.64l-0.06,0-0.05,0-0.06,0-0.05,0-0.06,0-0.05,0-0.06,0-0.05,0-0.06,0-0.05,0-0.07.05,0,0-0.07.06,0,0-0.07.08,0,0-0.08.09,0,0-0.11.15-0.08.13,0,0-0.05.1,0,0.06,0,0.1,0,0.08,0,0.11,0,0.09,0,0.11,0,0.1,0,0.12,0,0.1,0,0.12,0,0.1v0h0c-0.48,1.84-.58,4.61.61,5.35a12.71,12.71,0,0,0-2.07,4.31h0c0,0.18-.09.36-0.13,0.54l0,0.18c0,0.12-.05.24-0.07,0.37l0,0.23c0,0.11,0,.22-0.05.33s0,0.16,0,.25,0,0.16,0,.23h0c0,0.26-.05.52-0.06,0.79s0,0.63,0,.95a5.9,5.9,0,0,0-1.33,2.65h0c0,0.06,0,.13,0,0.2s0,0.1,0,.14,0,0.29,0,.43,0,0.4,0,.59c0,0,0,.06,0,0.09,0,0.19,0,.37,0,0.56a0.3,0.3,0,0,0,0,0h0c0.25,2.21,1.5,4.05,4.22,5.28a9.57,9.57,0,0,0-4.06,3.22h0l-0.26.37-0.07.11-0.24.37-0.06.09c-0.09.15-.18,0.31-0.27,0.47l-0.07.13-0.22.43,0,0.1c-0.08.17-.16,0.35-0.24,0.54l-0.06.15-0.08.18h0l-0.16.4h0v0.07a19.62,19.62,0,0,0-.77,2.81h0l-0.05.27-0.16.46,0,0.06-0.17.47,0,0.06-0.19.5v0l-0.21.53h0a19,19,0,0,1-2.14,3.86l-0.32.42,0,0.06-0.34.4-0.05.06-0.34.37,0,0-0.37.35a8.09,8.09,0,0,1-1.95,1.34c-0.23.11-.46,0.24-0.69,0.38h0l0,0-0.26.16-0.14.09-0.29.21-0.09.07-0.26.21,0,0a2.94,2.94,0,0,0-2.05,1.28s-1.32,1.53-2.91,3.79h0v0l-0.39.57v0c-0.4.58-.8,1.2-1.2,1.84h0v0l-0.19.31,0,0h0c-0.37.61-.74,1.25-1.09,1.89h0c-0.23.42-.45,0.86-0.66,1.29h0q-0.2.42-.38,0.84v0q-0.18.42-.35,0.84h0c-0.2.5-.37,1-0.52,1.49h0v0l-0.12.44,0,0.06c0,0.15-.08.3-0.11,0.45v0q-0.11.47-.17,0.93v0h0q0,0.3-.07.6h0c0,0.16,0,.32,0,0.48v0c0,0.16,0,.32,0,0.48h0a5.82,5.82,0,0,0,.43,2h0c0.07,0.15.14,0.31,0.22,0.45h0a4.6,4.6,0,0,0,.27.44h0a4.64,4.64,0,0,0,.46.56h0l0.34,0.32h0a6.18,6.18,0,0,0,1.31.85h0a8.2,8.2,0,0,0,1,.39h0l0.58,0.18h0a13.54,13.54,0,0,0,2,.38h0l0.64,0.07h0l0.67,0h0.05l1,0h0.61l0.6,0h0l0.89,0h0c0.54,0,1.11-.08,1.7-0.14h0.06l0.63-.07H595s0.3,0,.79-0.11h0l0.13,0H596l0.16,0h0l0.19,0h0.05l0.2,0h0c0.37-.08.78-0.19,1.21-0.33h0l0.38-.13,0.06,0,0.38-.14h0a10.53,10.53,0,0,0,1.2-.56h0l0.37-.21,0,0,0.35-.23,0,0h0l0.08-.05c1.09,0.76,3.07.73,5.34,0.73,3.44,0,6.22.07,6.22-2.66a4,4,0,0,0-.4-1.74,18.64,18.64,0,0,0,6.18-.07,4,4,0,0,0-.2,1.25c0,2.72,2.79,2.66,6.22,2.66s6.22,0.07,6.22-2.66A4.6,4.6,0,0,0,628.18,235.83Zm-37.6-14.09,0,0,0.06-.06Zm-4.3,10.14c-0.14.92-.24,1.86-0.3,2.83a7,7,0,0,0-1.19.47A30.9,30.9,0,0,1,586.28,231.88Zm8.36,10.22h0a21.28,21.28,0,0,1-4.77-.11c2.58-.05,4.48-0.39,4.51-2.59a48.31,48.31,0,0,0,5.61.21,4,4,0,0,0,0,.54C598.82,241.28,596.84,241.88,594.64,242.09Z"
              transform="translate(-581.21 -175.17)" style="fill:#f69220"/>
        <path d="M621.06,178.36a6.71,6.71,0,0,1,3,.24c0.51,0.16.48,1.27,0.18,2.55l-0.15-.65-0.27.32,0.07-.77-0.28.42v-0.71l-0.49.33,0.26-.59-0.84.26,0.41-.57s-1,.08-1,0.05,0.52-.47.52-0.47l-0.87,0s0.64-.39.62-0.39Z"
              transform="translate(-581.21 -175.17)" style="fill:#010101"/>
        <path d="M621.39,184.76s-1.46-2.76-2.65-3.41a4.6,4.6,0,0,1,4.28-.85C623.94,180.77,622.25,185.66,621.39,184.76Z"
              transform="translate(-581.21 -175.17)" style="fill:#010101"/>
        <path d="M605.43,177.47a4.81,4.81,0,0,1,.56-1.39c1.16-1.69,2.58-.76,3.69.53l-0.56-.21,0.05,0.52-0.72-.51,0.14,0.63-0.74-.62,0,0.56-0.74-.78-0.06.85-0.32-.64-0.37,1-0.17-.54-0.47,1.06,0-1Z"
              transform="translate(-581.21 -175.17)" style="fill:#010101"/>
        <path d="M606.81,182.46a10.72,10.72,0,0,1,3.32-2.34s-2.18-4.92-3.73-2.21C605.78,179,605.35,182.13,606.81,182.46Z"
              transform="translate(-581.21 -175.17)" style="fill:#010101"/>
        <path d="M604.43,238" transform="translate(-581.21 -175.17)" style="fill:#010101"/>
        <ellipse cx="615.6" cy="184.45" rx="1.04" ry="1.54" transform="translate(-588.45 -149) rotate(-2.42)"
                 style="fill:#010101"/>
        <ellipse cx="610.93" cy="184.29" rx="1.09" ry="1.58" transform="translate(-608.4 8.53) rotate(-16.73)"
                 style="fill:#010101"/>
        <path d="M600.84,237.69a5.94,5.94,0,0,0-.84-2.49,0.82,0.82,0,0,1,.31-1.18,1,1,0,0,1,1.35.28,8.81,8.81,0,0,1,1.22,3.43l-0.45-.1-0.2-.58,0,0.57-0.3,0-0.22-.69v0.68l-0.33.06-0.2-.9,0,0.93-0.27,0"
              transform="translate(-581.21 -175.17)" style="fill:#010101"/>
        <path d="M615.62,191.05a11.39,11.39,0,0,0-.24-3.46s0.27,3.73,0,3.79" transform="translate(-581.21 -175.17)"
              style="fill:#010101"/>
        <path d="M628.3,238c1.42,1.71,1.13,3.33,1.34,3C630,239.31,628.68,238,628.3,238Z"
              transform="translate(-581.21 -175.17)" style="fill:#010101"/>
        <path d="M621.67,241.86c0.29,0.28-.74-1.77.56-3.23A2.21,2.21,0,0,0,621.67,241.86Z"
              transform="translate(-581.21 -175.17)" style="fill:#010101"/>
        <path d="M625.73,238.68a5.14,5.14,0,0,1,.38,3.25s0.55,0.32.43-1.47S625.51,238.12,625.73,238.68Z"
              transform="translate(-581.21 -175.17)" style="fill:#010101"/>
        <path d="M610.11,238.81c1.28,1.82.85,3.41,1.09,3.09C611.62,240.22,610.5,238.81,610.11,238.81Z"
              transform="translate(-581.21 -175.17)" style="fill:#010101"/>
        <path d="M603.92,242.21c0.3,0.3-.83-1.81.94-3.18A2.13,2.13,0,0,0,603.92,242.21Z"
              transform="translate(-581.21 -175.17)" style="fill:#010101"/>
        <path d="M607.59,239.16a5.14,5.14,0,0,1,.12,3.27s0.47,0.32.5-1.47S607.41,238.59,607.59,239.16Z"
              transform="translate(-581.21 -175.17)" style="fill:#010101"/>
        <path d="M592.31,238c1.42,1.71,1.13,3.33,1.34,3C593.93,239.28,592.69,238,592.31,238Z"
              transform="translate(-581.21 -175.17)" style="fill:#010101"/>
        <path d="M587.67,241.63c0.29,0.28-.89-1.75.56-3.23A2.2,2.2,0,0,0,587.67,241.63Z"
              transform="translate(-581.21 -175.17)" style="fill:#010101"/>
        <path d="M590.32,238.47a5.13,5.13,0,0,1,.38,3.25s0.47,0.31.35-1.49S590.1,237.91,590.32,238.47Z"
              transform="translate(-581.21 -175.17)" style="fill:#010101"/>
        <path d="M618.88,197.23a1.48,1.48,0,0,1-1.21,1.15c-0.83.2-3.79,0.27-4.55-1.37a16.2,16.2,0,0,1-.2-3.25,4.47,4.47,0,0,0,2.5-1.94c0.58-1.27.12-1.33-2.83-1.68s-0.52,3.06-.52,3.06a4.26,4.26,0,0,0,.65.54,15.38,15.38,0,0,0,.19,3.27s-0.48,1.77-2,1.78c-3.75,0-3.68-2.1-3.72-2.36s-0.26,0-.26,0-0.56,2.68,4,2.65a2.21,2.21,0,0,0,2-1.55,3.72,3.72,0,0,0,2.26,1.17c4.46,0.48,3.86-1.66,3.86-1.66S618.92,196.83,618.88,197.23Z"
              transform="translate(-581.21 -175.17)" style="fill:#010101"/>
        <path d="M611.13,190.82a11.56,11.56,0,0,1,.61-3.09s-0.58,2.7-.33,2.92" transform="translate(-581.21 -175.17)"
              style="fill:#010101"/>
        <path d="M623.84,195.42a5.39,5.39,0,0,0-.37-2.11,16.6,16.6,0,0,1-5.64.87A17.44,17.44,0,0,0,623.84,195.42Z"
              transform="translate(-581.21 -175.17)" style="fill:#010101"/>
        <path d="M595.19,218.38a24.25,24.25,0,0,0,6.86,1.07,14.33,14.33,0,0,1-5.31-2.81A11.63,11.63,0,0,1,595.19,218.38Z"
              transform="translate(-581.21 -175.17)" style="fill:#010101"/>
        <path d="M608,206.84a6.09,6.09,0,0,1-5.71-2.63,12.94,12.94,0,0,0-1.61,2.93C605.34,209.08,608,206.84,608,206.84Z"
              transform="translate(-581.21 -175.17)" style="fill:#010101"/>
        <path d="M599.7,210.41l-0.05.27c-0.21.65-.47,1.37-0.78,2.1a23.21,23.21,0,0,0,7.64-1.69C604.73,211.56,602,211.06,599.7,210.41Z"
              transform="translate(-581.21 -175.17)" style="fill:#010101"/>
        <path d="M592.6,220.06a10.31,10.31,0,0,0-2.93,2.79c5,4.56,9,2.63,9,2.63C595.28,224.92,593.44,221.94,592.6,220.06Z"
              transform="translate(-581.21 -175.17)" style="fill:#010101"/>
        <path d="M587.25,227.75a26,26,0,0,0-1,4.13c4.41,0.71,9.72-1,9.72-1C592.65,231.4,589.45,229.53,587.25,227.75Z"
              transform="translate(-581.21 -175.17)" style="fill:#010101"/>
        <path d="M603.56,189.27a29.06,29.06,0,0,0,4.17-.09,22.74,22.74,0,0,1-3.77-2A13.63,13.63,0,0,0,603.56,189.27Z"
              transform="translate(-581.21 -175.17)" style="fill:#010101"/>
        <path d="M606.39,194.07a7,7,0,0,1-4.24-.42,5.15,5.15,0,0,0-.1.77,8,8,0,0,0,0,1.28C605.19,195.48,606.39,194.07,606.39,194.07Z"
              transform="translate(-581.21 -175.17)" style="fill:#010101"/>
        <path d="M618,190.69a22.46,22.46,0,0,0,5.33-.42,13.64,13.64,0,0,0-.18-2.18C621.6,189.09,619.29,190.49,618,190.69Z"
              transform="translate(-581.21 -175.17)" style="fill:#010101"/>
        <path d="M606.88,226.74a6.75,6.75,0,0,1-4.3-1.3l0.06,1.92A4.67,4.67,0,0,0,606.88,226.74Z"
              transform="translate(-581.21 -175.17)" style="fill:#010101"/>
        <path d="M607.74,216.41c-2.57-.16-5.52-2.42-5.52-2.42l0.12,2.41,0,0.67A27.61,27.61,0,0,0,607.74,216.41Z"
              transform="translate(-581.21 -175.17)" style="fill:#010101"/>
        <path d="M602.42,220.82l0.05,2.21c3.94,0.28,5.09-1.13,5.09-1.13A6.42,6.42,0,0,1,602.42,220.82Z"
              transform="translate(-581.21 -175.17)" style="fill:#010101"/>
        <path d="M602.62,230.85l0.17,2.47a6.11,6.11,0,0,0,4.21-.21C605.21,232.9,603.89,231.79,602.62,230.85Z"
              transform="translate(-581.21 -175.17)" style="fill:#010101"/>
        <path d="M623,215.86h0Zm0.52,3.53a31.1,31.1,0,0,0,5,.92q-0.12-1.33-.28-2.56A10,10,0,0,1,623.52,219.39Zm3.86-6.2c-1.27,1.35-2.86,2.62-4.38,2.67,0.47,0,2.76-.05,4.92-0.16Q627.68,214.37,627.38,213.19Zm-3.5,20.42a23.51,23.51,0,0,0,4.34,1.83q0.15-1.36.25-2.65C626.74,233.44,624.86,234,623.89,233.62Zm-0.49-10.09s2.7,0.78,5.35,1.24q0-1.4-.1-2.69C626.8,222.88,624.66,223.64,623.4,223.52Zm-0.12,4.86a27.93,27.93,0,0,0,5.33,2.42q0.11-1.87.14-3.6C626.77,228.08,624.58,228.78,623.28,228.39Zm3.38-17.68c-0.23-.68-0.47-1.32-0.71-1.91a7.13,7.13,0,0,1-4.49,1.59A16.74,16.74,0,0,0,626.66,210.71Z"
              transform="translate(-581.21 -175.17)" style="fill:#010101"/>
        <path d="M624.63,206.13a18.3,18.3,0,0,0-1.68-2.45,9.55,9.55,0,0,1-4.84,2.46A22,22,0,0,0,624.63,206.13Z"
              transform="translate(-581.21 -175.17)" style="fill:#010101"/>
        <path d="M586.39,241.29a7,7,0,0,0-1.16,2.42,11,11,0,0,0,1.26.35A10,10,0,0,1,586.39,241.29Zm3.88,3.14,1.23,0a20.36,20.36,0,0,1-.45-2A3.83,3.83,0,0,0,590.28,244.43Zm5.87-2.55a3.23,3.23,0,0,0-.36,2.14c0.25,0,.56-0.1.89-0.18a12.67,12.67,0,0,1-.32-2Zm-10.37-14.79a12.94,12.94,0,0,1,1,1,6,6,0,0,0-.13-2.26C586.33,226.26,586,226.66,585.77,227.09ZM585,228.32l-0.22.35c0.5,0.55.86,1,.86,1A4,4,0,0,0,585,228.32Zm9.57,13.79a3.36,3.36,0,0,0-.41,2.12l0.77-.09a10.77,10.77,0,0,1-.27-2h-0.1Zm5.39,0.54a7.91,7.91,0,0,0,.79-0.5c-0.87-.5-1.67-1.09-1.67-1.09A3.23,3.23,0,0,0,599.94,242.65Zm-2.4-1a8.43,8.43,0,0,0,.34,1.82c0.28-.09.57-0.19,0.86-0.31A7.36,7.36,0,0,1,597.54,241.69Zm-5,.49a10.29,10.29,0,0,0-.13,2.19l0.76-.05c-0.32-1-.56-1.93-0.61-2.14h0Zm-9.93-.06a5.87,5.87,0,0,0,1.68,1.2,4.17,4.17,0,0,1,1.1-2.52A3.21,3.21,0,0,0,582.6,242.12Zm5.21,2.16q0.67,0.08,1.42.12c-0.2-1.11-.28-2.26-0.28-2.26A3.79,3.79,0,0,0,587.81,244.28Zm-6.57-6.64a7.9,7.9,0,0,0,0,1,6.85,6.85,0,0,1,2.46-.84A4.61,4.61,0,0,0,581.23,237.64Zm19.12,2.86a5.23,5.23,0,0,0,1.38.78,4.82,4.82,0,0,0,.58-0.79C601.23,240.51,600.36,240.5,600.36,240.5Zm-18.62-5.43a13.28,13.28,0,0,0-.44,2,7.15,7.15,0,0,1,2.21-.89A6.86,6.86,0,0,0,581.74,235.07Zm3.62-2.84a7.11,7.11,0,0,0-1.19-2.56c-0.17.3-.34,0.6-0.5,0.91C584.54,231.38,585.36,232.23,585.36,232.23ZM584,235.1a15.38,15.38,0,0,0-1-3.23c-0.27.57-.53,1.14-0.75,1.72A14.21,14.21,0,0,1,584,235.1Zm-0.2,4.29a2.32,2.32,0,0,0-2.16,1.27,4.86,4.86,0,0,0,.5.9A8.74,8.74,0,0,1,583.8,239.38Z"
              transform="translate(-581.21 -175.17)" style="fill:#010101"/>
    </g>


</svg>