<svg xmlns="http://www.w3.org/2000/svg" xmlns:xlink="http://www.w3.org/1999/xlink"
     viewBox="0 0 310.17 352.17">
    <g id="tiger">
        <defs>
            <radialGradient id="radial-gradient" cx="151.61" cy="45.85" r="5.12" gradientUnits="userSpaceOnUse">
                <stop offset="0" stop-color="#787878"/>
                <stop offset="1"/>
            </radialGradient>
            <radialGradient id="radial-gradient-2" cx="84.54" cy="47.78" r="5.12" xlink:href="#radial-gradient"/>
        </defs>
        <path d="M422.95,372.18s23.08,2.4,29.57-25.24-4.57-56.73,7.45-80.53,53.37-22.84,52.41-7.45-37.26.48-36.3,41.59,4.09,80.29-53.12,85.34l-8.54-5.41Z"
              transform="translate(-202.22 -47.6)" style="fill:#d4640a"/>
        <path d="M323.55,250.72c12-.45,22.12,23.26,25.36,43.63s0.36,51.92.36,51.92-26,7.75-24.52,29,30.83,18,30.83,18c19.29,13.7,39.3,1.26,39.3,1.26s7-.36,18.57-0.36,11-14.24,8.29-29-18.21-18-18.21-18c3.79-15.87,4-41.11.18-56.61s-9-57.15-19.29-72.48-23.8-13.34-23.8-13.34H286.47s-13.52-2-23.8,13.34-15.5,57-19.29,72.48-3.61,40.75.18,56.61c0,0-15.5,3.24-18.21,18s-3.25,29,8.29,29,18.57,0.36,18.57.36,20,12.44,39.3-1.26c0,0,29.39,3.24,30.83-18s-24.52-29-24.52-29-2.88-31.55.36-51.92S307.65,250.81,323.55,250.72Z"
              transform="translate(-202.22 -47.6)" style="fill:#ff7f00"/>
        <path d="M323.55,250.72c12-.45,22.12,23.26,25.36,43.63s0.36,51.92.36,51.92-26,7.75-24.52,29,30.83,18,30.83,18c19.29,13.7,39.3,1.26,39.3,1.26s7-.36,18.57-0.36,11-14.24,8.29-29-18.21-18-18.21-18c3.79-15.87,4-41.11.18-56.61s-9-57.15-19.29-72.48-23.8-13.34-23.8-13.34H286.47s-13.52-2-23.8,13.34-15.5,57-19.29,72.48-3.61,40.75.18,56.61c0,0-15.5,3.24-18.21,18s-3.25,29,8.29,29,18.57,0.36,18.57.36,20,12.44,39.3-1.26c0,0,29.39,3.24,30.83-18s-24.52-29-24.52-29-2.88-31.55.36-51.92S307.65,250.81,323.55,250.72Z"
              transform="translate(-202.22 -47.6)" style="fill:#ff7f00"/>
        <ellipse cx="393.2" cy="68.45" rx="21.03" ry="20.67" transform="translate(-135.62 250.26) rotate(-44.96)"
                 style="fill:#ff7f00"/>
        <path d="M382.5,81.67a13.49,13.49,0,1,0,.18-18.92A13.38,13.38,0,0,0,382.5,81.67Zm0.78-15.88a11.32,11.32,0,1,1-.15,16.15A11.42,11.42,0,0,1,383.28,65.79Z"
              transform="translate(-202.22 -47.6)"/>
        <ellipse cx="251.85" cy="68.45" rx="20.67" ry="21.03" transform="translate(-176.77 150.69) rotate(-45.04)"
                 style="fill:#ff7f00"/>
        <path d="M366.19,205.06a18.38,18.38,0,0,0-5.56-.31H286.47a19.61,19.61,0,0,0-7,.63c6.44,12.92,20.47,32.2,45.81,28C347.61,229.67,359.9,215.73,366.19,205.06Z"
              transform="translate(-202.22 -47.6)" style="fill:#d4640a"/>
        <path d="M262.37,62.75a13.26,13.26,0,1,0,.18,18.92A13.38,13.38,0,0,0,262.37,62.75Zm-0.46,19.19a11.52,11.52,0,1,1-.15-16.15A11.42,11.42,0,0,1,261.92,81.94Z"
              transform="translate(-202.22 -47.6)"/>
        <path d="M229.37,141.35s-7.21,8.65-5.23,17.49c0,0-19.83-38.4,20.55-70,0,0,14.72-19.59,45.13-26.68a9.57,9.57,0,0,0,.24-7.69s8.29,0.72,12.38,6.13c0,0,9.74-7.21,21.16-7.93,0,0-12.38,5.29-13.34,8.65,0,0,26-.12,26.8-9.74,0,0,5.17,5.17,33.05,15.39s44,26.92,51.44,45.07-1.08,44.77-1.08,44.77,0-11.18-6.31-16.59c0,0,3.91,22.66-12,44.53,0,0,1.44-10-2.16-12.74,0,0-4.33,22.48-36.42,27.64,0,0-7.87,23.41-39.87,27.55s-42.91-26-42.91-26-27.92-1.23-36.93-25.15a13.25,13.25,0,0,0,0,11.54S226.31,174,229.37,141.35Z"
              transform="translate(-202.22 -47.6)" style="fill:#ff7f00"/>
        <path d="M372.92,109.58S356,115.66,346,108.34s-9.32-25.26-9.32-25.26,16.89-6.07,26.89,1.25S372.92,109.58,372.92,109.58Z"
              transform="translate(-202.22 -47.6)" style="fill:#d4640a"/>
        <path d="M269.63,111.51s16.89,6.07,26.89-1.25S305.85,85,305.85,85,289,78.93,279,86.25,269.63,111.51,269.63,111.51Z"
              transform="translate(-202.22 -47.6)" style="fill:#d4640a"/>
        <ellipse cx="152.99" cy="48.85" rx="12.36" ry="12.14" style="fill:#fc8600"/>
        <path d="M341.41,96.44a13.71,13.71,0,0,1,13.81-13.59h0A13.71,13.71,0,0,1,369,96.44h0A13.71,13.71,0,0,1,355.21,110h0a13.71,13.71,0,0,1-13.81-13.58h0Zm2.88,0a10.82,10.82,0,0,0,10.92,10.7h0a10.82,10.82,0,0,0,10.92-10.7h0a10.82,10.82,0,0,0-10.92-10.7h0a10.82,10.82,0,0,0-10.92,10.7h0Z"
              transform="translate(-202.22 -47.6)"/>
        <ellipse cx="152.99" cy="48.85" rx="7.86" ry="7.72" style="fill:url(#radial-gradient)"/>
        <ellipse cx="151.46" cy="44.83" rx="2.65" ry="2.6" style="fill:#fff"/>
        <ellipse cx="85.92" cy="50.77" rx="12.36" ry="12.14" style="fill:#fc8600"/>
        <path d="M274.34,98.36a13.7,13.7,0,0,1,13.8-13.58h0A13.7,13.7,0,0,1,302,98.36h0a13.7,13.7,0,0,1-13.81,13.58h0a13.7,13.7,0,0,1-13.8-13.58h0Zm2.88,0a10.83,10.83,0,0,0,10.92,10.7h0a10.82,10.82,0,0,0,10.92-10.7h0a10.82,10.82,0,0,0-10.92-10.7h0a10.82,10.82,0,0,0-10.92,10.7h0Z"
              transform="translate(-202.22 -47.6)"/>
        <ellipse cx="85.92" cy="50.77" rx="7.86" ry="7.72" style="fill:url(#radial-gradient-2)"/>
        <ellipse cx="84.39" cy="46.76" rx="2.65" ry="2.6" style="fill:#fff"/>
        <path d="M346.37,123.38s36.42,8.41,30.11,46.09l-1.26-2.1s-1,16.59-19.35,21c0,0-1.93,12.74-11.54,17.67,0,0-5.73,4.33-22.56,4.33s-22.56-4.33-22.56-4.33c-9.61-4.93-11.54-17.67-11.54-17.67-18.39-4.45-19.35-21-19.35-21l-1.26,2.1c-6.31-37.68,30.11-46.09,30.11-46.09S330.22,123.26,346.37,123.38Z"
              transform="translate(-202.22 -47.6)" style="fill:#f9ead5"/>
        <polygon points="118.5 114.6 118.5 87.68 119.94 87.68 119.94 114.6 118.5 114.6 118.5 114.6"/>
        <path d="M282.2,149.52l2.16,2.4s-4.45,4.15-4.15,10.1C280.22,162,277.63,156.49,282.2,149.52Z"
              transform="translate(-202.22 -47.6)"/>
        <path d="M363.86,149.52l-2.16,2.4s4.45,4.15,4.15,10.1C365.84,162,368.43,156.49,363.86,149.52Z"
              transform="translate(-202.22 -47.6)"/>
        <path d="M267.11,107.15s-18.81,26.44-8,44.65c0,0-8.29-4.15-9.74-17.49,0,0-6.85,41.29,30.47,61.48,0,0-32.45-2.34-36.42-43.81,0,0-2,11.72-.9,15.32,0,0-14.6-37.32,24.88-60.76"
              transform="translate(-202.22 -47.6)"/>
        <path d="M376.67,107.15s18.81,26.44,8,44.65c0,0,8.29-4.15,9.74-17.49,0,0,6.85,41.29-30.47,61.48,0,0,32.45-2.34,36.42-43.81,0,0,2,11.72.9,15.32,0,0,14.6-37.32-24.88-60.76"
              transform="translate(-202.22 -47.6)"/>
        <path d="M367.29,87.44s9.2,2.34,12.5,5.89A11.52,11.52,0,0,0,371,94.59s32.63,13.28,39.6,38.28c0,0-.6-27.16-24.88-38.82,0,0,8.9-1.92,16.23,4C402,98,393.44,85,367.29,87.44Z"
              transform="translate(-202.22 -47.6)"/>
        <path d="M276.49,87.44s-9.2,2.34-12.5,5.89a11.52,11.52,0,0,1,8.77,1.26s-32.63,13.28-39.6,38.28c0,0,.6-27.16,24.88-38.82,0,0-8.89-1.92-16.23,4C241.81,98,250.35,85,276.49,87.44Z"
              transform="translate(-202.22 -47.6)"/>
        <ellipse cx="148.07" cy="89.6" rx="3" ry="2.04"/>
        <ellipse cx="130.03" cy="95.49" rx="3" ry="2.04"/>
        <ellipse cx="143.26" cy="108.11" rx="3" ry="2.04"/>
        <ellipse cx="95.18" cy="108.47" rx="3" ry="2.04"/>
        <ellipse cx="105.76" cy="95.25" rx="3" ry="2.04"/>
        <ellipse cx="88.81" cy="89.48" rx="3" ry="2.04"/>
        <path d="M281.06,154.45s0.42,22.5,15.66,30.44a45.42,45.42,0,0,1,22.81-1.35s16.13-6.85,31.37.45c0,0,14.3-8.8,13.34-32.12,0,0-5.71,16.11-20.61,18.27a23.54,23.54,0,0,1-22.42-8.77s-5.38,11.9-19.8,9.73S281.06,154.45,281.06,154.45Z"
              transform="translate(-202.22 -47.6)"/>
        <path d="M403.31,347.18c3.79-15.87,4-41.11.18-56.61-0.26-1-.52-2.22-0.79-3.49,7.61-3.13,26.31-9.06,36.49,3,12.48,14.74,2.79,46.8-21.22,66.72C412.5,349.11,403.31,347.18,403.31,347.18Z"
              transform="translate(-202.22 -47.6)" style="fill:#ff7f00"/>
        <path d="M403.31,347.18c3.66-15.32,3.94-39.36.55-55,8.12-1.34,17.56-.72,23.79,6.64,10.49,12.38,5.31,37-10.86,56.38A27.07,27.07,0,0,0,403.31,347.18Z"
              transform="translate(-202.22 -47.6)" style="fill:#d4640a"/>
        <path d="M340.53,181c-1.4-2.5-8-12.29-22.21-6.27,0,0-20.28-6.72-21.42,10.13a45.66,45.66,0,0,1,22.62-1.28A44.62,44.62,0,0,1,340.53,181Z"
              transform="translate(-202.22 -47.6)" style="fill:#b70123"/>
        <path d="M243.56,347.18c-3.79-15.87-4-41.11-.18-56.61,0.26-1,.52-2.22.79-3.49-7.61-3.13-26.31-9.06-36.49,3-12.48,14.74-2.78,46.8,21.22,66.72C234.37,349.11,243.56,347.18,243.56,347.18Z"
              transform="translate(-202.22 -47.6)" style="fill:#ff7f00"/>
        <path d="M317.19,113.73c-9.94.23-21.36,4.21-20.43,8.76s6,0.94,9,4.32,8.45,8.82,17,8.53c10.21-.35,11.61-9.81,16.56-9.81s7.89-1.87,6.5-5.26S332,113.38,317.19,113.73Z"
              transform="translate(-202.22 -47.6)"/>
        <path d="M243.56,347.18c-3.66-15.32-3.94-39.36-.54-55-8.13-1.34-17.56-.72-23.79,6.64-10.49,12.38-5.31,37,10.86,56.38A27.07,27.07,0,0,1,243.56,347.18Z"
              transform="translate(-202.22 -47.6)" style="fill:#d4640a"/>
        <path d="M254.56,370.25c-4.68.22-3.36-20.79,8.47-23.92s18.75-.3,18.57,3.55-12.08-.12-18,4.39S259.67,370,254.56,370.25Z"
              transform="translate(-202.22 -47.6)" style="fill:#d4640a"/>
        <path d="M391.59,370.25c4.68,0.22,3.36-20.79-8.47-23.92s-18.75-.3-18.57,3.55,12.08-.12,18,4.39S386.48,370,391.59,370.25Z"
              transform="translate(-202.22 -47.6)" style="fill:#d4640a"/>
        <path d="M261.17,249.22c9,20.07,29.45,18.75,29.45,18.75-33.89-16.95-14.9-27-14.9-27-10.82-9-7.09-28.73-7.09-28.73-0.11-.24-0.22-0.45-0.33-0.67a35.06,35.06,0,0,0-5.62,6.56c-3.25,4.84-6,12.3-8.34,20.74,0,0.18,0,.37,0,0.54C254.08,247.78,261.17,249.22,261.17,249.22ZM354.75,268s20.43,1.32,29.45-18.75c0,0,7.09-1.44,6.85-9.85-0.06-2-.2-4.63-0.39-7.48a59.28,59.28,0,0,0-6.22-13.8,34.23,34.23,0,0,0-6.81-7.59c-0.3.51-.59,1.07-0.88,1.7,0,0,3.73,19.71-7.09,28.73C369.65,240.93,388.64,251,354.75,268Zm48.78,21.77c-1.28-5.48-2.74-13.79-4.5-23-0.6.42-1.23,0.89-1.92,1.43,0,0-6.31,10.28-16.77,7.75,0,0,3.07,7.21,9.74,9.2,0,0-2.34,12.62-22.9,14.42,0,0,20.37,5.77,35.52-6.13Zm-106.81,23-2.86-1.11s-4,9.29-15.86,7.84c0,0,1.7,11.33-9.2,15.1a14.35,14.35,0,0,0,14.72-8.86s4.53,5,13.29,2.92C296.65,323.71,296.58,318.23,296.72,312.71Zm70.64,6.73c-11.89,1.45-15.85-7.84-15.85-7.84l-1.14.44c0.16,5.87.08,11.73-.09,16.91,7.63,1.12,11.56-3.26,11.56-3.26a14.35,14.35,0,0,0,14.72,8.86C365.66,330.77,367.36,319.44,367.36,319.44ZM406.09,307h-1s-4.57,11.78-18,11.3c0,0,4.93,6.37-2.28,10.82,0,0,15.75.72,20.43-7.09,0.43-.72.83-1.43,1.22-2.13C406.5,315.57,406.38,311.22,406.09,307ZM336.3,259.38l0.29-.36-0.83-.4Zm-30,3.43,0.73,0.32c3.88-7.37,9.16-12.36,16.52-12.4,0.29,0,.57,0,0.85,0-7.85-7.77-9.08-15.89-9.08-15.89C316.58,245.31,306.3,262.8,306.3,262.8Zm-48,55.53a18.53,18.53,0,0,1-17.36-9.93c-0.29,4.72-.36,9.63-0.22,14.49,5.27,6.93,19.86,6.26,19.86,6.26C253.36,324.7,258.28,318.33,258.28,318.33Zm-3-33.17c6.67-2,9.74-9.2,9.74-9.2-10.46,2.53-16.77-7.75-16.77-7.75l-0.39-.3c-1.75,9.19-3.19,17.42-4.47,22.66-0.23.94-.45,1.93-0.65,2.94,15.14,11.82,35.44,6.08,35.44,6.08C257.62,297.78,255.28,285.16,255.28,285.16Z"
              transform="translate(-202.22 -47.6)"/>
        <path d="M480.65,253.94a24.78,24.78,0,0,1,0-4c-8.08,2.56-15.7,7.55-20.07,15.37,1.69,9,8.31,16.43,17.3,20.35a22.54,22.54,0,0,1,12.21-14.15A26.17,26.17,0,0,1,480.65,253.94Z"
              transform="translate(-202.22 -47.6)"/>
        <path d="M450.14,354.28c-3.66,8.59-9.24,13.1-14.4,15.44a24.68,24.68,0,0,0,5.82,4.58,25.07,25.07,0,0,0,11.88,3.17c10.82-6.23,16.66-15.36,19.75-26.23C465.91,355.43,457.61,356.67,450.14,354.28Zm26.31-62c-7-3.08-15.06-2.68-22.35.59-0.22,6.64.12,13.47,0.38,20.37a26.23,26.23,0,0,1,20.1,2.09c0.65,0.36,1.25.79,1.85,1.2-0.06-5.26-.22-10.62-0.35-16A56,56,0,0,1,476.45,292.31Z"
              transform="translate(-202.22 -47.6)"/>
    </g>

</svg>