<svg xmlns="http://www.w3.org/2000/svg" viewBox="0 0 69.16 79.82">
    <g id="zebra">
        <path d="M532.06,347.22L528,346c-4.33-6.46-5.85-13.33-6.81-20.29,0-.24,0-0.48,0-0.72,0-7.1-4.31-11.65-10.45-10.69l-1.3-.07h0l-0.36,0-6.53-.33-2.21-.11h0l-2.05-.1-3.22-.16h0l-6.6-.34L488,311.07l0.23-.09-0.16-2.24-1.16-.71,1,0.09-0.34-2.79-0.85-.22,0.88-.29-0.49-2-1.15-.59,1.11,0-0.27-1.78-1.14-.37,1.23-.2-0.27-1.78-1.39-1,1.19,0.2-0.13-1.79-2-.87,2.09,0.19L486.19,293l-2-.53,1.93-.14,0-1.69-2.05.37,1.73-1-0.38-1.09a4.48,4.48,0,0,0,.87-3.58,4.66,4.66,0,0,0-4.19,1.13l-0.61-.47L480,288.16h0l1.24-2.31-2.29-1.54-1.48,2.57h-0.05l1.06-2.69-3-.35,0.5,3.12h-0.09l-0.63-3-4-.09,0.6,2.38-0.25-.29-0.65-2-1.63.5a3.74,3.74,0,0,0-1.89,0s-0.84,4.56,3.23,5.81q-0.47.27-.94,0.58a14.8,14.8,0,0,0-3.11,2.76h0l-0.23.29v0l-0.25.32-0.07.09-0.19.27-0.06.08-0.23.35,0,0-0.18.31-0.06.1-0.15.27,0,0.08-0.17.35,0,0.06-0.13.29,0,0.1-0.11.28,0,0.08-0.12.35,0,0.08-0.08.28,0,0.11c0,0.09,0,.18-0.06.28l0,0.07c0,0.11,0,.23-0.06.34v0.09c0,0.09,0,.17,0,0.26s0,0.07,0,.1,0,0.18,0,.27,0,0,0,.06,0,0.22,0,.33,0,0.06,0,.09,0,0.16,0,.25,0,0.07,0,.1,0,0.18,0,.27v0c0,0.1,0,.21.06,0.31l0,0.09,0.06,0.23,0,0.09c0,0.09.06,0.18,0.09,0.27v0l0.12,0.29,0,0.08,0.11,0.21,0,0.08,0.17,0.27c0.09,0.14.2,0.27,0.3,0.4l0.06,0.07a4.57,4.57,0,0,0,.33.34l0.07,0.06c0.12,0.11.25,0.21,0.38,0.31h0l0.4,0.26,0.08,0L467,304l0.1,0,0.47,0.19,0,0,0.47,0.14,0.1,0,0.51,0.1,0.12,0,0.53,0.07h0.08l0.51,0h0.82l0.57,0h0.11l0.52-.08,0.14,0,0.58-.12,0.17,0,0.59-.16,0.13,0,0.52-.18,0.1,0h0a14.72,14.72,0,0,0,2.2-1,67.75,67.75,0,0,1,.35,14.22,48.42,48.42,0,0,0-.51,7.85,22.41,22.41,0,0,0,.8,7.38c0,1.64,0,4.77,0,8.4,0,0.25,0,.51,0,0.77q0,1,0,2c0,0.28,0,.55,0,0.83h0c0,0.53,0,1.05,0,1.58l0,0.83h0c0,0.37,0,.74,0,1.12h0c0,0.3,0,.61,0,0.91h0c0,0.57,0,1.14-.07,1.7h0c0,0.25,0,.49,0,0.73,0,0.42,0,.84-0.07,1.25s0,0.55-.05.83c0,0.54-.08,1.07-0.12,1.58,0,0.34-.06.67-0.09,1h0a31.92,31.92,0,0,1-.66,4.35h0a6.66,6.66,0,0,1-.41,1.22h0l3.6,0.39s0-1.85.09-4.64c0-.12,0-0.25,0-0.38s0-.08,0-0.13v-0.59q0-.82,0-1.71c0-.25,0-0.5,0-0.75h0c0-.48,0-1,0-1.49,0-.13,0-0.26,0-0.39,0-.58,0-1.18,0-1.78,0-.3,0-0.6,0-0.9h0c0-.37,0-0.74,0-1.12h0q0-.4,0-0.81h0l0.05-1.6h0c0-.25,0-0.5,0-0.74h0c0-.68,0-1.35.07-2h0c0-.18,0-0.36,0-0.53h0c0.1-2.5.21-4.83,0.34-6.69a8.49,8.49,0,0,0,1.76,1.23c0.34,6.4.85,18.95,0,24.18l0,0.15,0,0.12,0,0.13,0,0.12,0,0.12,0,0.11,0,0.11,0,0.11,0,0.1,0,0.11,0,0.09,0,0.11,0,0.08-0.06.17h4.57v0c0-.06,0-0.3,0-0.68,0,0,0-.1,0-0.15s0-.05,0-0.08c0-.88-0.12-2.34-0.21-4.15,0-.28,0-0.57,0-0.86h0c0-.57-0.06-1.17-0.09-1.79h0c0-.29,0-0.58,0-0.88h0c0-.39,0-0.8-0.06-1.21h0c0-.11,0-0.23,0-0.34l-0.1-2.09h0c0-.32,0-0.63,0-1h0c-0.06-1.16-.12-2.33-0.17-3.5h0c0-.17,0-0.34,0-0.51-0.13-2.75-.27-5.43-0.37-7.68a11.73,11.73,0,0,0,1.84.14H507.8c0,1.11-.06,2.31-0.1,3.55h0c0,0.26,0,.52,0,0.79h0c0,0.65-.05,1.32-0.08,2,0,0.27,0,.54,0,0.81,0,0.54-.05,1.08-0.08,1.61h0q0,0.39,0,.78,0,0.59-.07,1.19,0,0.42-.06.85h0c0,0.6-.09,1.19-0.14,1.78h0l-0.06.67c0,0.44-.08.87-0.12,1.29h0l-0.08.78h0c-0.08.7-.16,1.38-0.25,2h0l-0.08.56v0c0,0.18-.05.35-0.08,0.53a24.63,24.63,0,0,1-.55,2.58l0,0.12,0,0.13,0,0.11,0,0.12,0,0.11,0,0.11,0,0.11,0,0.1,0,0.11,0,0.08,0,0.11,0,0.07-0.05.11,0,0.05-0.08.15,4.29,0.39s0,0,0-.13v-0.07c0-.07,0-0.16,0-0.27,0-.26,0-0.63,0-1.09h0c0.09-4.06.37-15.16,0.84-22.36a12.65,12.65,0,0,0,2.89-.85c-0.14,6.81.33,18.77-.54,23.89h0a10.23,10.23,0,0,1-.27,1.21,4.49,4.49,0,0,1-.19.53l5.44-.05v-0.11s0,0,0,0c0-.25,0-0.82-0.09-1.63v0h0l-0.1-1.93c0-.1,0-0.19,0-0.29h0c0-.64-0.07-1.34-0.11-2.08h0c0-.07,0-0.14,0-0.21,0-.71-0.08-1.46-0.12-2.25,0-.11,0-0.22,0-0.33h0c0-.61-0.06-1.23-0.1-1.87,0-.26,0-0.51,0-0.77h0c0-.37,0-0.73-0.06-1.11h0c0-.29,0-0.58,0-0.87h0c-0.08-1.44-.15-2.9-0.23-4.35h0c0-.31,0-0.62,0-0.93h0l-0.19-3.7h0c0-.35,0-0.7-0.05-1h0l-0.05-1.06h0c0-.13,0-0.27,0-0.4,0-.85-0.08-1.66-0.12-2.39a12.93,12.93,0,0,0,3.67-4.77,47.74,47.74,0,0,0,6.31,16.33l0.08,0.13-0.08,0,0.57,3,0.82-.06v-1.11l0.59,2.23,2-.5-1.45-1.71,1.56,1.44,0.73-.49,0.39-.45L530,347.51l1.65,0.5Z"
              transform="translate(-463.61 -283.24)" style="fill:#fff;stroke:#000"/>
        <path d="M505.32,361.15l4.29,0.39s0-.57,0-1.56l-3.71-.46A7.2,7.2,0,0,1,505.32,361.15Zm-23.84-.29h0a8.29,8.29,0,0,1-.43,1.69h4.56l-0.08-1.67Zm-5.8-.69a6.38,6.38,0,0,1-.41,1.22l3.61,0.39s0-.45,0-1.24l-3.21-.36h0Zm37.15,0.5a7.68,7.68,0,0,1-.46,1.74l5.44-.05-0.09-1.81ZM473.76,291.5a0.75,0.75,0,1,0-.9.82A0.88,0.88,0,0,0,473.76,291.5Zm1.43,1a1.11,1.11,0,1,0-.13-1.18A0.88,0.88,0,0,0,475.19,292.54Zm56.87,54.68-4.19-1.29-1.49.76,0.57,3,0.82-.06v-1.12l0.59,2.23,2-.5-1.45-1.71,1.56,1.44,0.73-.49,0.39-.45L530,347.51l1.65,0.5Zm-56.52-45.46,0.07,0,0,0,0.06,0,0.05,0,0.06,0,0.05,0,0.06-.05,0.06-.05,0.05,0,0.08-.08,0.06-.07,0.07-.08,0-.05,0.06-.07,0-.06,0.06-.07,0-.06,0.05-.08,0-.06,0.06-.09,0-.06,0.06-.11,0,0,0.09-.16,0,0,0.06-.12,0-.07,0-.11,0-.07,0-.11,0-.08,0-.12,0-.08,0-.14,0-.07,0.06-.21a0.21,0.21,0,0,0,0-.25,0.38,0.38,0,0,0-.36,0l-0.05.2,0,0.06,0,0.13,0,0.07,0,0.12,0,0.07,0,0.11,0,0.07,0,0.11,0,0.06-0.06.14v0l-0.08.15,0,0.05-0.05.09,0,0.06,0,0.08,0,0.06,0,0.08,0,0.06-0.05.07,0,0.05-0.06.08,0,0.05-0.08.09,0,0-0.05.05-0.05.05,0,0-0.05,0,0,0-0.06,0,0,0-0.06,0,0,0-0.25.17,0,0-0.08,0,0,0-0.08,0h0l-0.08,0h0a3.49,3.49,0,0,1-.51.19h0l-0.11,0h0c-1.31-5.09-6-7.61-7.28-8.21h0l-0.06,0h0l0,0h0l0,0h-0.16c-2.45,2.91-3.22,6.35-1.65,8.69s5.42,3,9.26,1.59l0.32-.18c0-.12,0-0.23,0-0.35v-0.05c0-.1,0-0.2,0-0.3v0c0-.11,0-0.21-0.05-0.32h0l-0.07-.33h0l0.44-.14h0l0.09,0h0l0.09,0,0,0,0.08,0,0,0,0.08,0h0l0.27-.16Zm6.66-15.25-0.68-.52L480,288.16h0l1.24-2.31-2.29-1.54-1.48,2.57h-0.05l1.06-2.69-3-.35,0.5,3.12h-0.09l-0.63-3-4-.09,1.1,4.38-1.4-4.28-3.21,1,3.37,5a7.93,7.93,0,0,1,2.4-1.13,8.91,8.91,0,0,1,6.72.35A9.67,9.67,0,0,1,482.2,286.52Zm18.13,27.22c2.49,6,2.32,18,2.32,18,3.07-3.07,2-13.64,1.45-17.78Zm-5.27-.27c3,7,1.1,18,1.1,18,4-5.68,3.48-13.71,2.89-17.8Zm-5.58-.28c2.38,8.58,1.29,12,.84,13A16.48,16.48,0,0,0,492,313.31Zm0.84,13-0.16.28A1.73,1.73,0,0,0,490.31,326.14ZM513,327.87a18.75,18.75,0,0,0,3.52-12.65,8.29,8.29,0,0,0-4.25-1.08C515.55,318.55,513,327.87,513,327.87ZM505.16,314c3.06,5.37,3.25,16.53,3.25,16.53,3.08-3.08,1.69-12.62,1-16.31ZM476.8,348.74a2.32,2.32,0,0,0,1.42-.73,4.49,4.49,0,0,1-1.38-.18C476.83,348.14,476.81,348.44,476.8,348.74Zm-0.45,7.08a2.85,2.85,0,0,0,1.86-.43,8.23,8.23,0,0,1-1.77-.57C476.42,355.17,476.39,355.5,476.36,355.82ZM477,340.66c0,0.28,0,.56,0,0.85a3.28,3.28,0,0,0,1.44,0A1.62,1.62,0,0,1,477,340.66Zm-0.37,11.77q0,0.42-.05.84a2.24,2.24,0,0,0,1.69-.89A2.84,2.84,0,0,1,476.62,352.43Zm0.07-1.24a1.45,1.45,0,0,0,1.49-.65,2,2,0,0,1-1.45-.09Zm0.26-7.74c0,0.29,0,.57,0,0.86a9.84,9.84,0,0,0,1.65-.06A3.65,3.65,0,0,1,477,343.45Zm-0.05,2.43,0,0.84a1.72,1.72,0,0,0,1.31-.55A2.28,2.28,0,0,1,476.9,345.88Zm6.61,6.22a1.52,1.52,0,0,0,1.61.65c0-.27,0-0.54,0-0.81A1.82,1.82,0,0,1,483.5,352.09Zm0-2.52a2.31,2.31,0,0,0,1.53.74q0-.47,0-1A4.22,4.22,0,0,1,483.47,349.57Zm0-1.84a1.75,1.75,0,0,0,1.39.55c0-.29,0-0.59,0-0.88A2.29,2.29,0,0,1,483.5,347.73Zm1.27-1.86,0-.85a3.67,3.67,0,0,1-1.63.79A9.8,9.8,0,0,0,484.78,345.87Zm-0.17-3.49a1.68,1.68,0,0,1-1.34.67,3.27,3.27,0,0,0,1.38,0Zm-1.18,11.57a2.25,2.25,0,0,0,1.8.89c0-.29,0-0.58,0-0.88A2.71,2.71,0,0,1,483.42,353.94Zm2,4-0.07-1.33a3.11,3.11,0,0,1-1.77.92A2.59,2.59,0,0,0,485.38,358Zm30-13.42a3.29,3.29,0,0,0,1.49,0c0-.31,0-0.62,0-0.93A1.58,1.58,0,0,1,515.39,344.53Zm2.27,14.85c0-.33,0-0.68-0.05-1.05a3.77,3.77,0,0,1-1.45.69A2.32,2.32,0,0,0,517.66,359.38Zm-1.75-4a2.23,2.23,0,0,0,1.58.83c0-.26,0-0.53,0-0.8A2.94,2.94,0,0,1,515.91,355.41Zm0-1.84a1.43,1.43,0,0,0,1.46.61l0-.72A2,2,0,0,1,515.93,353.57Zm1.33-1.83q0-.45,0-0.92a4.5,4.5,0,0,1-1.4.23A2.32,2.32,0,0,0,517.26,351.73Zm-0.11-2q0-.43,0-0.87a2.29,2.29,0,0,1-1.32.36A1.75,1.75,0,0,0,517.15,349.71ZM517,347.3l0-.9a3.74,3.74,0,0,1-1.66.9A10,10,0,0,0,517,347.3Zm-0.49-9.54c0-.22,0-0.44,0-0.66l-0.07-.63s-0.16,1.09-1.9.74C514.54,337.21,514.91,338,516.54,337.75Zm-1.81,4.4a2.72,2.72,0,0,0,2,.33l-0.09-1.86v0.1S516.59,341.65,514.72,342.15Zm-0.21-3.1a2.26,2.26,0,0,0,2.13.81c0-.35,0-0.7-0.05-1A2.28,2.28,0,0,1,514.52,339Zm-7.42,12.76c1.57,0.1,2-.49,2-0.49a4.39,4.39,0,0,1-1.9-.18Zm0.37-5.26c0,0.26,0,.53,0,0.79a2.73,2.73,0,0,0,1.76-.4A4.56,4.56,0,0,1,507.47,346.55Zm-0.58,7.32a3.35,3.35,0,0,0,2.23-.7,6.1,6.1,0,0,1-2.14-.08C506.95,353.36,506.92,353.62,506.89,353.87ZM506.47,357a4.52,4.52,0,0,0,2.37-.22,6.67,6.67,0,0,1-2.2-.88Q506.56,356.46,506.47,357Zm0.82-7.63a3.6,3.6,0,0,0,1.9-.57,9.86,9.86,0,0,1-1.84-.3C507.33,348.79,507.31,349.07,507.29,349.36Zm0.41-8c0,0.26,0,.52,0,0.79a6.61,6.61,0,0,0,2,.13A2.83,2.83,0,0,1,507.7,341.37Zm-0.15,3.58a20.4,20.4,0,0,0,2.26.12,6.6,6.6,0,0,1-2.22-.93C507.58,344.4,507.57,344.67,507.55,344.94Zm-19.32-34-0.16-2.24-1.16-.71,1,0.09-0.34-2.79-0.85-.22,0.88-.29-0.49-2-1.15-.59,1.11,0-0.27-1.78-1.13-.37,1.23-.2-0.27-1.78-1.39-1,1.19,0.2-0.13-1.79-2-.87,2.09,0.19L486.19,293l-2-.53,1.93-.14,0-1.69-2.05.37,1.73-1-0.38-1.09a5.27,5.27,0,0,1-3.56,1.64c0.07,0.09.14,0.17,0.2,0.27a4.39,4.39,0,0,1,.36.65,5.16,5.16,0,0,1,.45,2.19v0a0.26,0.26,0,0,1,0,0l0,0.16v0s0,0,0,.07l0,0.26v0.09l0,0.3,0,0.09,0,0.28,0,0.09,0.06,0.34,0,0.13,0.07,0.36,0,0.12,0.06,0.35,0,0.1,0,0.25,0-.11c-0.44,1.53-1.37,3.69-3.21,4.65h0l0.42,0c0.22,0,.51-0.05.83-0.1h0a7.43,7.43,0,0,0,2.65-.87l0,0.23,0,0.15,0.12,0.54,0,0.15,0,0.13A6.48,6.48,0,0,1,481,305a13.1,13.1,0,0,0,4.15-.47h0l0,0.16,0,0.13,0.16,0.6,0,0.15,0.17,0.61,0,0.11,0.16,0.57,0,0.1,0.08,0.26h0a7.81,7.81,0,0,1-3.89,2.09h0.07l0.2,0a16.15,16.15,0,0,0,2.24.18,7.55,7.55,0,0,0,2-.22l0.13,0.4,0,0.13,0.21,0.6,0,0.11,0.21,0.59h0a9.43,9.43,0,0,1-3.65,1.74,10.27,10.27,0,0,0,4.33,0h0l0.12,0.28,0.45,0L488,311.07Z"
              transform="translate(-463.61 -283.24)" style="fill:#020202"/>
    </g>
</svg>